<?xml version="1.0" encoding="utf-8"?>
<!-- Generator: Adobe Illustrator 15.1.0, SVG Export Plug-In . SVG Version: 6.00 Build 0)  -->
<!DOCTYPE svg PUBLIC "-//W3C//DTD SVG 1.1//EN" "http://www.w3.org/Graphics/SVG/1.1/DTD/svg11.dtd">
<svg version="1.1" id="Layer_1" xmlns="http://www.w3.org/2000/svg" xmlns:xlink="http://www.w3.org/1999/xlink" x="0px" y="0px"
	 width="800px" height="242px" viewBox="0 0 800 242" enable-background="new 0 0 800 242" xml:space="preserve">
<g>
	<g>
		<g>
			<g>
				<polygon fill="#E6E6E6" points="111.685,174.464 119.415,154.827 55.947,154.827 65.224,131.054 136.734,131.054 
					144.464,111.418 51.706,111.418 23.805,182.933 44.985,182.933 48.29,174.464 				"/>
				<polygon fill="#E6E6E6" points="19.938,228.274 113.433,228.274 121.188,208.641 48.775,208.641 56.371,189.175 35.189,189.175 
									"/>
				<polygon fill="#E6E6E6" points="131.175,168.396 124.917,182.933 182.453,182.933 188.711,168.396 				"/>
				<path fill="#E6E6E6" d="M287.619,165.406c-5.55-4.01-17.232-7.554-35.714-10.84c-8.684-1.573-14.547-3.248-17.412-4.976
					c-2.889-1.741-2.97-3.604-2.717-5.032c0.112-0.637,0.317-1.354,0.604-2.113c3.252-8.272,14.07-12.468,32.166-12.468
					c9.718,0,16.462,1.2,20.042,3.56c2.503,1.671,3.299,4.872,2.431,9.789c-0.4,2.272-1.008,4.883-1.827,7.845l-0.955,3.436h20.481
					l0.94-2.509c1.421-3.775,2.445-7.399,3.04-10.773c3.626-20.56-9.054-30.985-37.679-30.985
					c-31.404,0-51.351,10.362-59.272,30.766c-0.817,2.046-1.4,4.036-1.732,5.917c-1.553,8.81,1.729,15.644,9.735,20.302
					c4.271,2.525,12.583,5.091,25.419,7.848c10.349,2.234,16.925,3.771,19.513,4.554c3.979,1.259,5.896,2.398,6.862,3.208h23.039
					C295.498,175.405,293.25,169.467,287.619,165.406"/>
				<polygon fill="#E6E6E6" points="216.884,174.07 195.503,174.07 192.129,182.933 213.297,182.933 				"/>
				<path fill="#E6E6E6" d="M283.233,189.413c0.905,0.845,1.18,1.945,0.894,3.567c-0.141,0.811-0.455,1.832-0.922,3.021
					c-1.786,4.499-5.822,7.848-12.373,10.252c-6.046,2.299-13.348,3.463-21.707,3.463c-28.973,0-27.061-10.849-26.431-14.412
					c0.268-1.517,0.761-3.135,1.469-4.846l0.519-1.283h-21.168l-0.145,0.382c-1.202,3.085-2.052,5.996-2.523,8.658
					c-2.009,11.397,1.903,19.852,11.613,25.112c7.291,3.997,17.503,6.023,30.357,6.023c12.284,0,23.762-2.161,34.13-6.432
					c13.493-5.643,22.529-14.151,26.821-25.215c0.997-2.398,1.7-4.764,2.1-7.032c0.094-0.529,0.037-0.982,0.1-1.497h-23.036
					C283.024,189.252,283.158,189.343,283.233,189.413"/>
				<path fill="#E6E6E6" d="M365.09,179.39c11.711,0,22.562-2.232,32.244-6.634l0.002-0.003c12.849-5.855,21.693-14.7,26.332-26.376
					c1.052-2.847,1.808-5.584,2.254-8.129c2.16-12.24-2.004-26.83-34.099-26.83h-54.408l-27.9,71.515h21.179l1.38-3.543H365.09z
					 M350.786,131.054h35.794c19.286,0,17.962,7.499,17.529,9.962c-0.229,1.289-0.659,2.703-1.31,4.28
					c-1.723,4.438-5.146,7.883-10.484,10.531c-5.216,2.607-11.325,3.927-18.172,3.927h-34.425L350.786,131.054z"/>
				<polygon fill="#E6E6E6" points="305.646,228.274 326.826,228.274 342.08,189.175 320.898,189.175 				"/>
				<path fill="#E6E6E6" d="M551.082,153.946c2.357-13.369-0.598-23.888-8.787-31.253c-7.97-7.176-20.193-10.813-36.332-10.813
					c-18.547,0-35.277,4.706-49.719,13.989c-15.014,9.663-25.999,23.244-32.668,40.4c-1.806,4.808-3.116,9.465-3.889,13.851
					c-0.169,0.963-0.256,1.878-0.371,2.813h21.746c-0.024-1.889,0.144-3.898,0.523-6.05c0.52-2.952,1.418-6.107,2.652-9.342
					c4.52-11.494,11.6-20.453,21.048-26.629c9.537-6.235,21.124-9.396,34.44-9.396c13.089,0,22.09,3.034,26.767,9.012
					c3.048,4.16,3.964,9.404,2.794,16.04c-0.52,2.945-1.48,6.186-2.871,9.679c-2.42,6.313-5.713,11.84-9.704,16.686h22.627
					c3.008-4.783,5.616-9.882,7.721-15.361C548.975,162.83,550.324,158.249,551.082,153.946"/>
				<path fill="#E6E6E6" d="M516.516,199.814c-9.743,6.569-21.419,9.901-34.718,9.901c-10.999,0-19.043-2.398-23.918-7.13
					c-3.569-3.47-5.359-7.893-5.434-13.411h-21.743c-1.515,12.112,1.364,21.852,8.689,28.916c7.725,7.471,19.897,11.26,36.174,11.26
					c18.676,0,35.683-5.028,50.547-14.946c10.111-6.747,18.316-15.228,24.609-25.229h-22.625
					C524.75,193.237,520.93,196.839,516.516,199.814"/>
				<polygon fill="#E6E6E6" points="548.555,228.274 569.728,228.274 585.125,189.175 563.809,189.175 				"/>
				<path fill="#E6E6E6" d="M639.484,193.423c-0.17,0.956-0.518,2.036-1.091,3.346l-12.274,31.506h21.183l11.931-30.631
					c1.013-2.563,1.733-5.068,2.151-7.435c0.064-0.359,0.053-0.681,0.1-1.034h-22.64
					C639.92,190.831,639.646,192.512,639.484,193.423"/>
				<path fill="#E6E6E6" d="M667.873,144.141c1.018-2.586,1.743-5.085,2.157-7.433c2.961-16.782-8.295-25.29-33.451-25.29h-56.256
					l-27.9,71.515h21.318l1.816-4.618h34.96c11.201,0,15.424,2.283,16.94,4.618h22.64c0.811-5.751-0.136-10.613-2.961-14.454
					C656.831,162.742,663.796,154.572,667.873,144.141 M647.126,143.381c-1.941,5.057-5.607,8.808-11.197,11.462
					c-5.437,2.546-12.103,3.836-19.802,3.836H583.05l10.645-27.625h37.026c18.975,0,17.787,6.729,17.397,8.941
					C647.938,141.012,647.604,142.146,647.126,143.381"/>
				<polygon fill="#E6E6E6" points="739.564,131.054 779.407,131.054 787.162,111.418 686.252,111.418 678.504,131.054 
					718.39,131.054 698.181,182.933 719.355,182.933 				"/>
				<polygon fill="#E6E6E6" points="709.567,189.175 694.34,228.274 715.513,228.274 730.74,189.175 				"/>
			</g>
		</g>
	</g>
	<polygon fill="#95004F" points="104.586,165.845 112.316,146.209 48.847,146.209 58.125,122.435 129.634,122.435 137.366,102.8 
		44.608,102.8 16.707,174.313 37.886,174.313 41.191,165.845 	"/>
	<polygon fill="#95004F" points="12.838,219.656 106.333,219.656 114.089,200.021 41.676,200.021 49.271,180.557 28.09,180.557 	"/>
	<polygon fill="#95004F" points="124.075,159.774 117.817,174.313 175.355,174.313 181.614,159.774 	"/>
	<g>
		<path fill="#95004F" d="M280.52,156.788c-5.548-4.01-17.232-7.555-35.714-10.842c-8.684-1.573-14.547-3.246-17.412-4.974
			c-2.889-1.741-2.968-3.604-2.717-5.036c0.112-0.636,0.318-1.352,0.604-2.11c3.252-8.274,14.07-12.468,32.166-12.468
			c9.718,0,16.462,1.201,20.042,3.561c2.503,1.671,3.299,4.871,2.431,9.788c-0.401,2.271-1.009,4.884-1.827,7.844l-0.955,3.435
			h20.481l0.94-2.508c1.423-3.773,2.445-7.397,3.042-10.774c3.624-20.557-9.054-30.984-37.679-30.984
			c-31.406,0-51.353,10.362-59.274,30.765c-0.817,2.045-1.4,4.036-1.73,5.917c-1.555,8.812,1.729,15.646,9.735,20.304
			c4.269,2.523,12.583,5.091,25.419,7.847c10.347,2.234,16.923,3.771,19.511,4.551c3.98,1.263,5.896,2.402,6.864,3.21h23.037
			C288.398,166.786,286.151,160.849,280.52,156.788"/>
		<polygon fill="#95004F" points="209.786,165.452 188.403,165.452 185.029,174.313 206.199,174.313 		"/>
		<path fill="#95004F" d="M276.134,180.795c0.905,0.843,1.181,1.944,0.896,3.566c-0.143,0.81-0.457,1.832-0.923,3.021
			c-1.787,4.499-5.821,7.845-12.373,10.252c-6.046,2.299-13.348,3.463-21.707,3.463c-28.971,0-27.061-10.851-26.431-14.414
			c0.268-1.515,0.761-3.133,1.469-4.844l0.519-1.283h-21.168l-0.145,0.382c-1.202,3.085-2.052,5.996-2.521,8.656
			c-2.011,11.399,1.901,19.852,11.613,25.114c7.289,3.996,17.501,6.022,30.355,6.022c12.284,0,23.762-2.16,34.13-6.431
			c13.495-5.644,22.531-14.152,26.82-25.215c0.998-2.399,1.702-4.764,2.101-7.032c0.093-0.529,0.037-0.983,0.101-1.497h-23.038
			C275.925,180.634,276.058,180.725,276.134,180.795"/>
		<path fill="#95004F" d="M357.991,170.771c11.711,0,22.562-2.232,32.246-6.636v-0.002c12.848-5.856,21.694-14.7,26.331-26.375
			c1.052-2.848,1.808-5.585,2.258-8.131c2.159-12.239-2.006-26.829-34.101-26.829h-54.408l-27.901,71.514h21.18l1.38-3.541H357.991z
			 M343.687,122.434h35.795c19.285,0,17.962,7.501,17.528,9.964c-0.228,1.289-0.66,2.701-1.31,4.28
			c-1.721,4.438-5.146,7.883-10.482,10.531c-5.218,2.606-11.327,3.927-18.174,3.927h-34.422L343.687,122.434z"/>
		<polygon fill="#95004F" points="298.547,219.656 319.728,219.656 334.98,180.557 313.799,180.557 		"/>
		<path fill="#95004F" d="M543.983,145.328c2.357-13.371-0.6-23.888-8.787-31.254c-7.972-7.176-20.193-10.815-36.332-10.815
			c-18.547,0-35.277,4.708-49.719,13.99c-15.014,9.664-25.999,23.245-32.67,40.4c-1.806,4.808-3.114,9.466-3.887,13.85
			c-0.171,0.963-0.256,1.879-0.371,2.813h21.744c-0.022-1.887,0.146-3.896,0.523-6.048c0.521-2.953,1.42-6.108,2.654-9.343
			c4.52-11.494,11.6-20.452,21.048-26.629c9.537-6.234,21.124-9.395,34.44-9.395c13.089,0,22.09,3.031,26.767,9.011
			c3.047,4.161,3.964,9.403,2.794,16.037c-0.52,2.949-1.482,6.189-2.871,9.681c-2.422,6.313-5.713,11.842-9.704,16.686h22.625
			c3.008-4.781,5.618-9.88,7.721-15.36C541.874,154.211,543.226,149.629,543.983,145.328"/>
		<path fill="#95004F" d="M509.417,191.195c-9.743,6.569-21.421,9.902-34.718,9.902c-10.999,0-19.045-2.4-23.918-7.131
			c-3.571-3.469-5.359-7.895-5.434-13.41h-21.743c-1.515,12.111,1.364,21.852,8.688,28.914c7.724,7.473,19.898,11.261,36.175,11.261
			c18.676,0,35.683-5.03,50.545-14.945c10.114-6.747,18.318-15.228,24.611-25.229H521
			C517.651,184.617,513.831,188.218,509.417,191.195"/>
		<polygon fill="#95004F" points="541.456,219.656 562.629,219.656 578.026,180.557 556.708,180.557 		"/>
		<path fill="#95004F" d="M632.384,184.802c-0.168,0.959-0.516,2.038-1.089,3.347l-12.274,31.508h21.181l11.931-30.631
			c1.013-2.563,1.735-5.066,2.151-7.435c0.064-0.359,0.055-0.683,0.102-1.034h-22.642
			C632.821,182.212,632.545,183.893,632.384,184.802"/>
		<path fill="#95004F" d="M660.774,135.521c1.016-2.584,1.743-5.084,2.157-7.432c2.959-16.781-8.295-25.291-33.451-25.291h-56.256
			l-27.9,71.515h21.316l1.818-4.619h34.96c11.199,0,15.424,2.286,16.938,4.619h22.642c0.81-5.749-0.138-10.611-2.96-14.453
			C649.732,154.122,656.697,145.954,660.774,135.521 M640.025,134.763c-1.939,5.057-5.607,8.807-11.197,11.461
			c-5.435,2.547-12.101,3.836-19.802,3.836h-33.075l10.645-27.627h37.026c18.975,0,17.787,6.732,17.397,8.942
			C640.84,132.394,640.506,133.527,640.025,134.763"/>
		<polygon fill="#95004F" points="732.464,122.434 772.309,122.434 780.063,102.799 679.152,102.799 671.404,122.434 
			711.289,122.434 691.082,174.313 712.257,174.313 		"/>
		<polygon fill="#95004F" points="702.469,180.557 687.239,219.656 708.414,219.656 723.642,180.557 		"/>
		<path fill="#808184" d="M306.832,34.098l6.52,0.639v-18.52h-6.52V34.098z M293.689,32.815l1.235,0.122v-16.72h-1.235V32.815z
			 M318.011,35.195l3.936,0.385l3.925-0.385V16.217h-7.861V35.195z M298.862,33.32l4.042,0.399V16.217h-4.042V33.32z
			 M348.961,16.217v16.722l0.201-0.014l1.136-0.11V16.217H348.961z M330.536,34.743l6.52-0.636v-17.89h-6.52V34.743z
			 M340.985,33.721l4.038-0.395V16.217h-4.038V33.721z"/>
		<path fill="#808184" d="M306.832,74.171h6.52V55.659l-6.52,0.639V74.171z M293.689,74.171h1.235V57.461l-1.235,0.122V74.171z
			 M318.011,74.171h7.861V55.204l-3.925-0.384l-3.936,0.384V74.171z M298.862,74.171h4.042v-17.49l-4.042,0.391V74.171z
			 M350.298,74.171V57.583l-1.136-0.112l-0.201-0.018v16.718H350.298z M330.536,74.171h6.52V56.292l-6.52-0.637V74.171z
			 M340.985,74.171h4.038V57.066l-4.038-0.391V74.171z"/>
		<path fill="#95004F" d="M292.967,53.509h2.693V36.892h-2.693V53.509z M298.242,53.509h5.285V36.892h-5.285V53.509z
			 M306.109,53.509h7.961V36.892h-7.961V53.509z M316.662,53.509h10.567V36.892h-10.567V53.509z M329.803,53.509h7.976V36.892
			h-7.976V53.509z M340.367,53.509h5.281V36.892h-5.281V53.509z M348.229,53.509h2.693V36.892h-2.693V53.509z"/>
		<path fill="#808184" d="M411.6,21.694h18.957v52.549h6.577V21.694h18.954v-5.476H411.6V21.694z M361.481,21.694h18.956v52.549
			h6.576V21.694h18.953v-5.476h-44.484V21.694z M500.456,16.218V53.79c0,9.605-6.195,15.575-16.167,15.575
			c-9.862,0-15.991-5.904-15.991-15.407v-37.74h-6.575v37.74c0,12.736,9.101,21.299,22.649,21.299
			c13.555,0,22.659-8.563,22.659-21.299v-37.74H500.456z M493.257,16.218h-4.958v6.75h4.958V16.218z M480.457,16.218h-4.96v6.75
			h4.96V16.218z"/>
	</g>
</g>
</svg>
