<?xml version="1.0" encoding="utf-8"?>
<!-- Generator: Adobe Illustrator 15.1.0, SVG Export Plug-In . SVG Version: 6.00 Build 0)  -->
<!DOCTYPE svg PUBLIC "-//W3C//DTD SVG 1.1//EN" "http://www.w3.org/Graphics/SVG/1.1/DTD/svg11.dtd">
<svg version="1.1" id="Layer_1" xmlns="http://www.w3.org/2000/svg" xmlns:xlink="http://www.w3.org/1999/xlink" x="0px" y="0px"
	 width="432px" height="600px" viewBox="0 0 432 600" enable-background="new 0 0 432 600" xml:space="preserve">
<g>
	<g>
		<polygon fill="#EBEAE9" points="314.937,239.973 338.302,180.624 146.468,180.624 174.509,108.767 390.647,108.767 414.012,49.42 
			133.651,49.42 49.319,265.565 113.338,265.565 123.327,239.973 		"/>
		<polygon fill="#EBEAE9" points="37.63,402.611 320.225,402.611 343.66,343.265 124.792,343.265 147.751,284.437 83.733,284.437 		
			"/>
		<polygon fill="#971B4C" points="293.479,213.921 316.847,154.574 125.009,154.574 153.05,82.715 369.189,82.715 392.553,23.368 
			112.192,23.368 27.862,239.518 91.881,239.518 101.868,213.921 		"/>
		<polygon fill="#971B4C" points="16.173,376.565 298.766,376.565 322.202,317.215 103.335,317.215 126.295,258.387 62.276,258.387 
					"/>
	</g>
	<g>
		<path fill="#EBEAE9" d="M96.856,464.394c-3.308-2.383-10.27-4.499-21.276-6.457c-5.175-0.934-8.666-1.933-10.373-2.962
			c-1.722-1.038-1.77-2.146-1.618-3.006c0.067-0.372,0.19-0.797,0.361-1.248c1.937-4.929,8.379-7.431,19.16-7.431
			c5.788,0,9.808,0.71,11.939,2.12c1.491,0.99,1.965,2.9,1.45,5.832c-0.241,1.354-0.603,2.909-1.092,4.674l-0.567,2.047h12.2
			l0.563-1.499c0.848-2.252,1.454-4.407,1.81-6.418c2.16-12.241-5.394-18.458-22.444-18.458c-18.71,0-30.594,6.169-35.313,18.331
			c-0.486,1.222-0.832,2.4-1.031,3.526c-0.925,5.244,1.029,9.314,5.801,12.088c2.543,1.507,7.493,3.036,15.141,4.675
			c6.167,1.332,10.083,2.252,11.625,2.712c2.371,0.753,3.514,1.433,4.09,1.914h13.722
			C101.548,470.353,100.209,466.816,96.856,464.394z"/>
		<polygon fill="#EBEAE9" points="54.716,469.56 41.978,469.56 39.971,474.834 52.581,474.834 		"/>
		<path fill="#EBEAE9" d="M94.243,478.694c0.539,0.508,0.703,1.156,0.532,2.124c-0.085,0.482-0.273,1.092-0.55,1.806
			c-1.064,2.677-3.468,4.675-7.371,6.099c-3.602,1.371-7.952,2.067-12.931,2.067c-17.26,0-16.12-6.462-15.746-8.587
			c0.16-0.902,0.453-1.871,0.876-2.883l0.31-0.771H46.753l-0.088,0.231c-0.718,1.836-1.222,3.571-1.502,5.157
			c-1.198,6.79,1.135,11.829,6.92,14.957c4.339,2.388,10.425,3.588,18.083,3.588c7.318,0,14.155-1.279,20.33-3.824
			c8.04-3.36,13.424-8.43,15.979-15.023c0.594-1.433,1.012-2.834,1.253-4.188c0.055-0.319,0.02-0.587,0.059-0.897H94.063
			C94.118,478.598,94.197,478.654,94.243,478.694z"/>
		<path fill="#EBEAE9" d="M143.007,472.723c6.977,0,13.438-1.323,19.209-3.947l0,0c7.655-3.496,12.924-8.763,15.687-15.72
			c0.626-1.695,1.075-3.325,1.343-4.841c1.288-7.286-1.194-15.987-20.313-15.987h-32.414l-16.621,42.606h12.619l0.821-2.111H143.007
			z M134.486,443.93h21.322c11.49,0,10.701,4.469,10.442,5.932c-0.133,0.771-0.392,1.612-0.779,2.555
			c-1.027,2.646-3.066,4.696-6.245,6.273c-3.108,1.551-6.749,2.336-10.826,2.336h-20.508L134.486,443.93z"/>
		<polygon fill="#EBEAE9" points="107.594,501.844 120.211,501.844 129.298,478.55 116.681,478.55 		"/>
		<path fill="#EBEAE9" d="M253.807,457.563c1.402-7.96-0.354-14.229-5.235-18.61c-4.749-4.276-12.03-6.449-21.643-6.449
			c-11.054,0-21.019,2.809-29.62,8.337c-8.944,5.757-15.487,13.849-19.461,24.065c-1.076,2.861-1.855,5.644-2.318,8.25
			c-0.099,0.578-0.15,1.117-0.219,1.678h12.953c-0.014-1.121,0.087-2.317,0.313-3.602c0.31-1.761,0.844-3.636,1.58-5.563
			c2.692-6.853,6.911-12.184,12.538-15.868c5.683-3.707,12.585-5.595,20.52-5.595c7.798,0,13.156,1.81,15.942,5.371
			c1.818,2.476,2.361,5.604,1.67,9.555c-0.316,1.753-0.886,3.685-1.714,5.771c-1.441,3.755-3.403,7.049-5.778,9.932h13.477
			c1.787-2.852,3.343-5.884,4.596-9.147C252.55,462.856,253.352,460.131,253.807,457.563z"/>
		<path fill="#EBEAE9" d="M233.216,484.889c-5.805,3.912-12.763,5.901-20.684,5.901c-6.552,0-11.347-1.433-14.249-4.245
			c-2.127-2.068-3.194-4.705-3.235-7.995h-12.955c-0.902,7.22,0.813,13.021,5.176,17.227c4.603,4.451,11.854,6.707,21.551,6.707
			c11.126,0,21.26-2.992,30.109-8.902c6.028-4.018,10.913-9.073,14.663-15.031h-13.476
			C238.119,480.977,235.845,483.123,233.216,484.889z"/>
		<polygon fill="#EBEAE9" points="252.305,501.844 264.918,501.844 274.087,478.55 261.387,478.55 		"/>
		<path fill="#EBEAE9" d="M306.473,481.086c-0.105,0.569-0.312,1.214-0.653,1.989l-7.312,18.769h12.617l7.11-18.247
			c0.601-1.529,1.03-3.019,1.284-4.425c0.035-0.215,0.026-0.408,0.057-0.622h-13.485
			C306.727,479.544,306.565,480.538,306.473,481.086z"/>
		<path fill="#EBEAE9" d="M323.379,451.724c0.609-1.533,1.039-3.022,1.288-4.425c1.766-10.002-4.941-15.071-19.93-15.071h-33.511
			l-16.622,42.606h12.696l1.087-2.747h20.823c6.677,0,9.196,1.363,10.094,2.747h13.489c0.482-3.422-0.083-6.321-1.765-8.608
			C316.803,462.808,320.953,457.937,323.379,451.724z M311.021,451.272c-1.157,3.01-3.339,5.244-6.669,6.83
			c-3.241,1.516-7.211,2.282-11.798,2.282h-19.706l6.344-16.455h22.059c11.304,0,10.594,4.009,10.361,5.323
			C311.506,449.861,311.305,450.536,311.021,451.272z"/>
		<polygon fill="#EBEAE9" points="366.086,443.93 389.824,443.93 394.442,432.228 334.333,432.228 329.714,443.93 353.473,443.93 
			341.439,474.834 354.052,474.834 		"/>
		<polygon fill="#EBEAE9" points="348.22,478.55 339.147,501.844 351.765,501.844 360.833,478.55 		"/>
		<path fill="#971B4C" d="M92.626,459.26c-3.306-2.393-10.268-4.5-21.277-6.458c-5.172-0.934-8.666-1.933-10.372-2.962
			c-1.72-1.038-1.768-2.146-1.617-3.001c0.066-0.381,0.188-0.802,0.357-1.253c1.938-4.938,8.384-7.431,19.163-7.431
			c5.79,0,9.81,0.71,11.938,2.121c1.492,0.989,1.965,2.899,1.448,5.831c-0.236,1.35-0.601,2.909-1.089,4.675l-0.567,2.046h12.199
			l0.563-1.499c0.846-2.252,1.457-4.402,1.813-6.418c2.157-12.245-5.396-18.458-22.447-18.458c-18.709,0-30.591,6.169-35.31,18.331
			c-0.488,1.223-0.837,2.4-1.034,3.526c-0.924,5.244,1.032,9.319,5.801,12.092c2.543,1.503,7.496,3.032,15.144,4.671
			c6.164,1.332,10.083,2.252,11.623,2.721c2.37,0.744,3.512,1.424,4.088,1.91h13.724C97.318,465.218,95.98,461.678,92.626,459.26z"
			/>
		<polygon fill="#971B4C" points="50.489,464.416 37.75,464.416 35.74,469.704 48.35,469.704 		"/>
		<path fill="#971B4C" d="M90.013,473.56c0.538,0.508,0.703,1.165,0.534,2.125c-0.086,0.481-0.271,1.091-0.552,1.796
			c-1.063,2.686-3.468,4.684-7.371,6.111c-3.6,1.367-7.95,2.068-12.929,2.068c-17.26,0-16.121-6.467-15.748-8.592
			c0.162-0.902,0.453-1.866,0.876-2.883l0.309-0.767H42.521l-0.085,0.228c-0.717,1.841-1.223,3.575-1.503,5.157
			c-1.196,6.79,1.133,11.829,6.918,14.957c4.344,2.388,10.43,3.593,18.083,3.593c7.318,0,14.157-1.284,20.335-3.829
			c8.037-3.365,13.42-8.43,15.979-15.019c0.593-1.438,1.012-2.848,1.25-4.193c0.055-0.315,0.021-0.587,0.06-0.894H89.831
			C89.888,473.463,89.969,473.52,90.013,473.56z"/>
		<path fill="#971B4C" d="M138.777,467.588c6.979,0,13.441-1.332,19.209-3.947l0.002-0.009c7.654-3.483,12.925-8.754,15.685-15.711
			c0.627-1.695,1.078-3.325,1.345-4.841c1.286-7.295-1.193-15.987-20.313-15.987h-32.414l-16.622,42.611h12.62l0.821-2.116H138.777z
			 M130.255,438.795h21.325c11.487,0,10.699,4.469,10.442,5.937c-0.136,0.767-0.395,1.608-0.782,2.55
			c-1.024,2.646-3.064,4.696-6.245,6.273c-3.106,1.556-6.747,2.34-10.825,2.34h-20.509L130.255,438.795z"/>
		<polygon fill="#971B4C" points="103.367,496.709 115.982,496.709 125.069,473.419 112.451,473.419 		"/>
		<path fill="#971B4C" d="M249.58,452.438c1.402-7.969-0.363-14.233-5.235-18.624c-4.754-4.271-12.035-6.44-21.647-6.44
			c-11.044,0-21.014,2.805-29.616,8.333c-8.943,5.762-15.489,13.849-19.463,24.07c-1.073,2.865-1.855,5.639-2.315,8.245
			c-0.101,0.578-0.153,1.126-0.221,1.683h12.954c-0.015-1.126,0.086-2.322,0.312-3.605c0.312-1.762,0.846-3.637,1.582-5.573
			c2.691-6.844,6.908-12.175,12.536-15.859c5.683-3.707,12.587-5.595,20.517-5.595c7.794,0,13.161,1.81,15.947,5.366
			c1.813,2.48,2.361,5.608,1.665,9.556c-0.312,1.757-0.881,3.688-1.709,5.766c-1.445,3.764-3.404,7.058-5.783,9.945h13.48
			c1.792-2.853,3.344-5.889,4.601-9.152C248.323,457.73,249.128,454.996,249.58,452.438z"/>
		<path fill="#971B4C" d="M228.984,479.763c-5.805,3.908-12.758,5.897-20.681,5.897c-6.552,0-11.348-1.438-14.25-4.25
			c-2.125-2.067-3.193-4.705-3.237-7.991h-12.953c-0.9,7.216,0.815,13.017,5.179,17.223c4.601,4.46,11.851,6.712,21.549,6.712
			c11.128,0,21.261-2.997,30.115-8.907c6.024-4.018,10.914-9.064,14.659-15.027h-13.48
			C233.891,475.842,231.617,477.979,228.984,479.763z"/>
		<polygon fill="#971B4C" points="248.073,496.709 260.686,496.709 269.86,473.419 257.159,473.419 		"/>
		<path fill="#971B4C" d="M302.241,475.947c-0.101,0.578-0.311,1.218-0.648,1.993l-7.316,18.769h12.617l7.111-18.243
			c0.604-1.528,1.033-3.019,1.279-4.429c0.039-0.215,0.035-0.408,0.061-0.618h-13.489
			C302.503,474.409,302.337,475.408,302.241,475.947z"/>
		<path fill="#971B4C" d="M319.157,446.594c0.6-1.538,1.038-3.027,1.283-4.43c1.762-9.998-4.946-15.071-19.926-15.071h-33.516
			l-16.621,42.611h12.696l1.082-2.752h20.828c6.672,0,9.191,1.354,10.089,2.752h13.49c0.481-3.431-0.079-6.326-1.762-8.613
			C312.576,457.674,316.725,452.802,319.157,446.594z M306.792,446.143c-1.152,3.01-3.338,5.244-6.668,6.825
			c-3.242,1.517-7.211,2.283-11.803,2.283H268.62l6.345-16.456h22.054c11.304,0,10.599,4.009,10.366,5.323
			C307.279,444.731,307.078,445.401,306.792,446.143z"/>
		<polygon fill="#971B4C" points="361.864,438.795 385.596,438.795 390.218,427.093 330.1,427.093 325.487,438.795 349.25,438.795 
			337.21,469.704 349.824,469.704 		"/>
		<polygon fill="#971B4C" points="343.993,473.419 334.916,496.709 347.533,496.709 356.606,473.419 		"/>
	</g>
</g>
<path fill="#808083" d="M122.779,539.127l5.904,0.578v-16.758h-5.904V539.127z M110.889,537.962l1.121,0.114v-15.129h-1.121V537.962
	z M132.895,540.108l3.56,0.359l3.556-0.359v-17.161h-7.115V540.108z M115.573,538.422l3.655,0.359v-15.834h-3.655V538.422z
	 M160.895,522.947v15.129l0.182-0.009l1.029-0.105v-15.015H160.895z M144.225,539.705l5.901-0.578v-16.18h-5.901V539.705z
	 M153.681,538.781l3.652-0.351v-15.483h-3.652V538.781z"/>
<path fill="#808083" d="M122.779,575.381h5.904v-16.758l-5.904,0.587V575.381z M110.889,575.381h1.121v-15.123l-1.121,0.118V575.381
	z M132.895,575.381h7.115V558.22l-3.556-0.346l-3.56,0.346V575.381z M115.573,575.381h3.655v-15.829l-3.655,0.355V575.381z
	 M162.106,575.381v-15.005l-1.029-0.11l-0.182-0.017v15.132H162.106z M144.225,575.381h5.901v-16.18l-5.901-0.578V575.381z
	 M153.681,575.381h3.652v-15.479l-3.652-0.351V575.381z"/>
<path fill="#931C52" d="M110.238,556.683h2.438v-15.036h-2.438V556.683z M115.009,556.683h4.784v-15.036h-4.784V556.683z
	 M122.128,556.683h7.203v-15.036h-7.203V556.683z M131.673,556.683h9.56v-15.036h-9.56V556.683z M143.566,556.683h7.213v-15.036
	h-7.213V556.683z M153.121,556.683h4.775v-15.036h-4.775V556.683z M160.231,556.683h2.438v-15.036h-2.438V556.683z"/>
<path fill="#808083" d="M217.562,527.902h17.152v47.544h5.95v-47.544h17.151v-4.955h-40.254V527.902z M172.224,527.902h17.148
	v47.544h5.949v-47.544h17.146v-4.955h-40.243V527.902z M297.956,522.947v33.989c0,8.692-5.607,14.085-14.633,14.085
	c-8.924,0-14.462-5.332-14.462-13.928v-34.146h-5.949v34.146c0,11.522,8.231,19.269,20.49,19.269
	c12.263,0,20.499-7.746,20.499-19.269v-34.146H297.956z M291.437,522.947h-4.482v6.112h4.482V522.947z M279.862,522.947h-4.486
	v6.112h4.486V522.947z"/>
</svg>
