<?xml version="1.0" encoding="utf-8"?>
<!-- Generator: Adobe Illustrator 19.0.0, SVG Export Plug-In . SVG Version: 6.00 Build 0)  -->
<svg version="1.1" id="Layer_1" xmlns="http://www.w3.org/2000/svg" xmlns:xlink="http://www.w3.org/1999/xlink" x="0px" y="0px"
	 viewBox="272 -64.6 800 242" style="enable-background:new 272 -64.6 800 242;" xml:space="preserve">
<style type="text/css">
	.st0{fill:#E6E6E6;}
	.st1{fill:#95004F;}
	.st2{fill:#808184;}
</style>
<g>
	<g>
		<g>
			<g>
				<polygon class="st0" points="383.7,106.9 391.4,87.2 327.9,87.2 337.2,63.4 408.7,63.4 416.5,43.8 323.7,43.8 295.8,115.3 
					317,115.3 320.3,106.9 				"/>
				<polygon class="st0" points="291.9,160.7 385.4,160.7 393.2,141 320.8,141 328.4,121.6 307.2,121.6 				"/>
				<polygon class="st0" points="403.2,100.8 396.9,115.3 454.5,115.3 460.7,100.8 				"/>
				<path class="st0" d="M559.6,97.8c-5.6-4-17.2-7.6-35.7-10.8c-8.7-1.6-14.5-3.2-17.4-5c-2.9-1.7-3-3.6-2.7-5
					c0.1-0.6,0.3-1.4,0.6-2.1c3.3-8.3,14.1-12.5,32.2-12.5c9.7,0,16.5,1.2,20,3.6c2.5,1.7,3.3,4.9,2.4,9.8c-0.4,2.3-1,4.9-1.8,7.8
					l-1,3.4h20.5l0.9-2.5c1.4-3.8,2.4-7.4,3-10.8c3.6-20.6-9.1-31-37.7-31c-31.4,0-51.4,10.4-59.3,30.8c-0.8,2-1.4,4-1.7,5.9
					c-1.6,8.8,1.7,15.6,9.7,20.3c4.3,2.5,12.6,5.1,25.4,7.8c10.3,2.2,16.9,3.8,19.5,4.6c4,1.3,5.9,2.4,6.9,3.2h23
					C567.5,107.8,565.3,101.9,559.6,97.8"/>
				<polygon class="st0" points="488.9,106.5 467.5,106.5 464.1,115.3 485.3,115.3 				"/>
				<path class="st0" d="M555.2,121.8c0.9,0.8,1.2,1.9,0.9,3.6c-0.1,0.8-0.5,1.8-0.9,3c-1.8,4.5-5.8,7.8-12.4,10.3
					c-6,2.3-13.3,3.5-21.7,3.5c-29,0-27.1-10.8-26.4-14.4c0.3-1.5,0.8-3.1,1.5-4.8l0.5-1.3h-21.2l-0.1,0.4c-1.2,3.1-2.1,6-2.5,8.7
					c-2,11.4,1.9,19.9,11.6,25.1c7.3,4,17.5,6,30.4,6c12.3,0,23.8-2.2,34.1-6.4c13.5-5.6,22.5-14.2,26.8-25.2c1-2.4,1.7-4.8,2.1-7
					c0.1-0.5,0-1,0.1-1.5h-23C555,121.6,555.2,121.7,555.2,121.8"/>
				<path class="st0" d="M637.1,111.8c11.7,0,22.6-2.2,32.2-6.6l0,0c12.8-5.9,21.7-14.7,26.3-26.4c1.1-2.8,1.8-5.6,2.3-8.1
					c2.2-12.2-2-26.8-34.1-26.8h-54.4l-27.9,71.5h21.2l1.4-3.5L637.1,111.8L637.1,111.8z M622.8,63.4h35.8c19.3,0,18,7.5,17.5,10
					c-0.2,1.3-0.7,2.7-1.3,4.3c-1.7,4.4-5.1,7.9-10.5,10.5c-5.2,2.6-11.3,3.9-18.2,3.9h-34.4L622.8,63.4z"/>
				<polygon class="st0" points="577.6,160.7 598.8,160.7 614.1,121.6 592.9,121.6 				"/>
				<path class="st0" d="M823.1,86.3c2.4-13.4-0.6-23.9-8.8-31.3c-8-7.2-20.2-10.8-36.3-10.8c-18.5,0-35.3,4.7-49.7,14
					c-15,9.7-26,23.2-32.7,40.4c-1.8,4.8-3.1,9.5-3.9,13.9c-0.2,1-0.3,1.9-0.4,2.8h21.7c0-1.9,0.1-3.9,0.5-6.1
					c0.5-3,1.4-6.1,2.7-9.3c4.5-11.5,11.6-20.5,21-26.6c9.5-6.2,21.1-9.4,34.4-9.4c13.1,0,22.1,3,26.8,9c3,4.2,4,9.4,2.8,16
					c-0.5,2.9-1.5,6.2-2.9,9.7c-2.4,6.3-5.7,11.8-9.7,16.7h22.6c3-4.8,5.6-9.9,7.7-15.4C821,95.2,822.3,90.6,823.1,86.3"/>
				<path class="st0" d="M788.5,132.2c-9.7,6.6-21.4,9.9-34.7,9.9c-11,0-19-2.4-23.9-7.1c-3.6-3.5-5.4-7.9-5.4-13.4h-21.7
					c-1.5,12.1,1.4,21.9,8.7,28.9c7.7,7.5,19.9,11.3,36.2,11.3c18.7,0,35.7-5,50.5-14.9c10.1-6.7,18.3-15.2,24.6-25.2h-22.6
					C796.8,125.6,792.9,129.2,788.5,132.2"/>
				<polygon class="st0" points="820.6,160.7 841.7,160.7 857.1,121.6 835.8,121.6 				"/>
				<path class="st0" d="M911.5,125.8c-0.2,1-0.5,2-1.1,3.3l-12.3,31.5h21.2l11.9-30.6c1-2.6,1.7-5.1,2.2-7.4c0.1-0.4,0.1-0.7,0.1-1
					h-22.6C911.9,123.2,911.6,124.9,911.5,125.8"/>
				<path class="st0" d="M939.9,76.5c1-2.6,1.7-5.1,2.2-7.4c3-16.8-8.3-25.3-33.5-25.3h-56.3l-27.9,71.5h21.3l1.8-4.6h35
					c11.2,0,15.4,2.3,16.9,4.6h22.6c0.8-5.8-0.1-10.6-3-14.5C928.8,95.1,935.8,87,939.9,76.5 M919.1,75.8
					c-1.9,5.1-5.6,8.8-11.2,11.5c-5.4,2.5-12.1,3.8-19.8,3.8H855l10.6-27.6h37c19,0,17.8,6.7,17.4,8.9
					C919.9,73.4,919.6,74.5,919.1,75.8"/>
				<polygon class="st0" points="1011.6,63.4 1051.4,63.4 1059.2,43.8 958.3,43.8 950.5,63.4 990.4,63.4 970.2,115.3 991.4,115.3 
									"/>
				<polygon class="st0" points="981.6,121.6 966.3,160.7 987.5,160.7 1002.7,121.6 				"/>
			</g>
		</g>
	</g>
	<polygon class="st1" points="376.6,98.2 384.3,78.6 320.8,78.6 330.1,54.8 401.6,54.8 409.4,35.2 316.6,35.2 288.7,106.7 
		309.9,106.7 313.2,98.2 	"/>
	<polygon class="st1" points="284.8,152 378.3,152 386.1,132.4 313.7,132.4 321.3,112.9 300.1,112.9 	"/>
	<polygon class="st1" points="396.1,92.2 389.8,106.7 447.4,106.7 453.6,92.2 	"/>
	<g>
		<path class="st1" d="M552.5,89.2c-5.5-4-17.2-7.6-35.7-10.8c-8.7-1.6-14.5-3.2-17.4-5c-2.9-1.7-3-3.6-2.7-5
			c0.1-0.6,0.3-1.4,0.6-2.1c3.3-8.3,14.1-12.5,32.2-12.5c9.7,0,16.5,1.2,20,3.6c2.5,1.7,3.3,4.9,2.4,9.8c-0.4,2.3-1,4.9-1.8,7.8
			l-1,3.4h20.5l0.9-2.5c1.4-3.8,2.4-7.4,3-10.8c3.6-20.6-9.1-31-37.7-31c-31.4,0-51.4,10.4-59.3,30.8c-0.8,2-1.4,4-1.7,5.9
			c-1.6,8.8,1.7,15.6,9.7,20.3c4.3,2.5,12.6,5.1,25.4,7.8c10.3,2.2,16.9,3.8,19.5,4.6c4,1.3,5.9,2.4,6.9,3.2h23
			C560.4,99.2,558.2,93.2,552.5,89.2"/>
		<polygon class="st1" points="481.8,97.8 460.4,97.8 457,106.7 478.2,106.7 		"/>
		<path class="st1" d="M548.1,113.2c0.9,0.8,1.2,1.9,0.9,3.6c-0.1,0.8-0.5,1.8-0.9,3c-1.8,4.5-5.8,7.8-12.4,10.3
			c-6,2.3-13.3,3.5-21.7,3.5c-29,0-27.1-10.9-26.4-14.4c0.3-1.5,0.8-3.1,1.5-4.8l0.5-1.3h-21.2l-0.1,0.4c-1.2,3.1-2.1,6-2.5,8.7
			c-2,11.4,1.9,19.9,11.6,25.1c7.3,4,17.5,6,30.4,6c12.3,0,23.8-2.2,34.1-6.4c13.5-5.6,22.5-14.2,26.8-25.2c1-2.4,1.7-4.8,2.1-7
			c0.1-0.5,0-1,0.1-1.5h-23C547.9,113,548.1,113.1,548.1,113.2"/>
		<path class="st1" d="M630,103.2c11.7,0,22.6-2.2,32.2-6.6v0c12.8-5.9,21.7-14.7,26.3-26.4c1.1-2.8,1.8-5.6,2.3-8.1
			c2.2-12.2-2-26.8-34.1-26.8h-54.4l-27.9,71.5h21.2l1.4-3.5H630z M615.7,54.8h35.8c19.3,0,18,7.5,17.5,10c-0.2,1.3-0.7,2.7-1.3,4.3
			c-1.7,4.4-5.1,7.9-10.5,10.5c-5.2,2.6-11.3,3.9-18.2,3.9h-34.4L615.7,54.8z"/>
		<polygon class="st1" points="570.5,152 591.7,152 607,112.9 585.8,112.9 		"/>
		<path class="st1" d="M816,77.7c2.4-13.4-0.6-23.9-8.8-31.3c-8-7.2-20.2-10.8-36.3-10.8c-18.5,0-35.3,4.7-49.7,14
			c-15,9.7-26,23.2-32.7,40.4c-1.8,4.8-3.1,9.5-3.9,13.9c-0.2,1-0.3,1.9-0.4,2.8H706c0-1.9,0.1-3.9,0.5-6c0.5-3,1.4-6.1,2.7-9.3
			c4.5-11.5,11.6-20.5,21-26.6c9.5-6.2,21.1-9.4,34.4-9.4c13.1,0,22.1,3,26.8,9c3,4.2,4,9.4,2.8,16c-0.5,2.9-1.5,6.2-2.9,9.7
			c-2.4,6.3-5.7,11.8-9.7,16.7h22.6c3-4.8,5.6-9.9,7.7-15.4C813.9,86.6,815.2,82,816,77.7"/>
		<path class="st1" d="M781.4,123.6c-9.7,6.6-21.4,9.9-34.7,9.9c-11,0-19-2.4-23.9-7.1c-3.6-3.5-5.4-7.9-5.4-13.4h-21.7
			c-1.5,12.1,1.4,21.9,8.7,28.9c7.7,7.5,19.9,11.3,36.2,11.3c18.7,0,35.7-5,50.5-14.9c10.1-6.7,18.3-15.2,24.6-25.2H793
			C789.7,117,785.8,120.6,781.4,123.6"/>
		<polygon class="st1" points="813.5,152 834.6,152 850,112.9 828.7,112.9 		"/>
		<path class="st1" d="M904.4,117.2c-0.2,1-0.5,2-1.1,3.3L891,152h21.2l11.9-30.6c1-2.6,1.7-5.1,2.2-7.4c0.1-0.4,0.1-0.7,0.1-1
			h-22.6C904.8,114.6,904.5,116.3,904.4,117.2"/>
		<path class="st1" d="M932.8,67.9c1-2.6,1.7-5.1,2.2-7.4c3-16.8-8.3-25.3-33.5-25.3h-56.3l-27.9,71.5h21.3l1.8-4.6h35
			c11.2,0,15.4,2.3,16.9,4.6H915c0.8-5.7-0.1-10.6-3-14.5C921.7,86.5,928.7,78.3,932.8,67.9 M912,67.2c-1.9,5.1-5.6,8.8-11.2,11.5
			c-5.4,2.5-12.1,3.8-19.8,3.8H848l10.6-27.6h37c19,0,17.8,6.7,17.4,8.9C912.8,64.8,912.5,65.9,912,67.2"/>
		<polygon class="st1" points="1004.5,54.8 1044.3,54.8 1052.1,35.2 951.2,35.2 943.4,54.8 983.3,54.8 963.1,106.7 984.3,106.7 		
			"/>
		<polygon class="st1" points="974.5,112.9 959.2,152 980.4,152 995.6,112.9 		"/>
		<path class="st2" d="M318.8-23.5l6.5,0.6v-18.5h-6.5V-23.5z M305.7-24.8l1.2,0.1v-16.7h-1.2V-24.8z M330-22.4l3.9,0.4l3.9-0.4v-19
			H330V-22.4z M310.8-24.3l4,0.4v-17.5h-4V-24.3z M360.9-41.4v16.7l0.2,0l1.1-0.1v-16.6H360.9z M342.5-22.9l6.5-0.6v-17.9h-6.5
			V-22.9z M353-23.9l4-0.4v-17.1h-4V-23.9z"/>
		<path class="st2" d="M318.8,16.6h6.5V-2l-6.5,0.6V16.6z M305.7,16.6h1.2V-0.1L305.7,0V16.6z M330,16.6h7.9v-19l-3.9-0.4L330-2.4
			V16.6z M310.8,16.6h4V-0.9l-4,0.4V16.6z M362.3,16.6V0l-1.1-0.1l-0.2,0v16.7H362.3z M342.5,16.6h6.5V-1.3L342.5-2V16.6z M353,16.6
			h4V-0.5l-4-0.4V16.6z"/>
		<path class="st1" d="M305-4.1h2.7v-16.6H305V-4.1z M310.2-4.1h5.3v-16.6h-5.3V-4.1z M318.1-4.1h8v-16.6h-8V-4.1z M328.6-4.1h10.6
			v-16.6h-10.6V-4.1z M341.8-4.1h8v-16.6h-8V-4.1z M352.4-4.1h5.3v-16.6h-5.3V-4.1z M360.2-4.1h2.7v-16.6h-2.7V-4.1z"/>
		<path class="st2" d="M423.6-35.9h19v52.5h6.6v-52.5h19v-5.5h-44.5V-35.9z M373.5-35.9h19v52.5h6.6v-52.5h19v-5.5h-44.5L373.5-35.9
			L373.5-35.9z M512.4-41.4v37.6c0,9.6-6.2,15.6-16.2,15.6c-9.9,0-16-5.9-16-15.4v-37.7h-6.6v37.7c0,12.7,9.1,21.3,22.6,21.3
			c13.6,0,22.7-8.6,22.7-21.3v-37.7C519-41.4,512.4-41.4,512.4-41.4z M505.2-41.4h-5v6.8h5V-41.4z M492.4-41.4h-5v6.8h5V-41.4z"/>
	</g>
</g>
</svg>
