<?xml version="1.0" encoding="utf-8"?>
<!-- Generator: Adobe Illustrator 19.0.0, SVG Export Plug-In . SVG Version: 6.00 Build 0)  -->
<svg version="1.1" id="Layer_1" xmlns="http://www.w3.org/2000/svg" xmlns:xlink="http://www.w3.org/1999/xlink" x="0px" y="0px"
	 viewBox="0 0 282 142" style="enable-background:new 0 0 282 142;" xml:space="preserve">
<style type="text/css">
	.st0{clip-path:url(#SVGID_2_);fill-rule:evenodd;clip-rule:evenodd;}
	.st1{clip-path:url(#SVGID_2_);fill-rule:evenodd;clip-rule:evenodd;fill:#EE2529;}
</style>
<g>
	<defs>
		<rect id="SVGID_1_" x="-87" y="-103.9" width="457.8" height="306.9"/>
	</defs>
	<clipPath id="SVGID_2_">
		<use xlink:href="#SVGID_1_"  style="overflow:visible;"/>
	</clipPath>
	<path class="st0" d="M37.5,81.6c22.2-2.4,26.2-23,5.3-29.7l-1.4-0.4c-19.8-5.8-20.7,23-5.4,12.1l0.8-0.8l0.7-0.9l0.6-0.8l0.5-0.9
		l0.7-0.7l0.9-0.6c14.7,4.8,15.6,18.6-3.4,20.1c-46.9-0.4-31.2-57.2,4.8-41.1l1.7,0.5l2,2.1l1.9,2.2l1.9,2.1l1.9,2.2l1.8,2.2
		c7.4,8.6,15.3,17.4,15.2,28c0,8.2-1.2,17.6-12.6,19.6L53.9,97l-1.7,0.5l1.1,0.6l1.2,0.4l1.2,0.3L57,99h1.3l1.3-0.1l1.4-0.2l1.3-0.2
		L65,98l2.4-0.5l1.2-0.2l1.1-0.1l0.9-0.1l0.9,0.1l-0.4,2.1l-0.1,2.2v2.2l0.1,2.2l0.4,2.2l0.4,2.2l0.4,2.1l0.4,2.2l1.2,4.3l1,4.2
		l0.4,2.1l0.4,2.1l0.3,2v2.1l-0.3,0.6l-0.6,0.6l-0.4,0.7l-0.7,0.6l-1.3,1.2l-1.4,1.2l-1.6,1.2l-1.6,0.9l-1.7,0.9L65,140v0.2v0.2
		l0.1,0.1v0.2l0.1,0.2l43.8-0.3l-1.7-1.1l-1.7-1.1l-1.7-1.2l-3.3-2.3l-3.3-2.7l-3.1-2.7l-2.9-2.9l-2.7-2.9l-2.4-2.8l-1.3-2.3
		l-1.4-2.5l-1-2.5l-1.1-2.6l-0.7-2.6l-0.6-2.6l-0.5-2.7l-0.2-2.7v-2.7c0.9-18.7,13.8-25.3,31.2-32.1l4-1.7l2,0.6l1.7,0.7l1.7,0.9
		l1.7,0.9c31.2,18.8,39.7-14.8,20.2-26.7c-5.5-3.4-12.6-6.1-22.7-4.2l-1.7,0.4l-1.7,0.5l-1.6,0.6l-1.4,0.7l-1.3,0.9l-1.3,1.1l-0.9,1
		l-0.9,1.1l-0.6,1.2l-0.5,1.2l-0.3,1.2l-0.3,1.2v1.3v1.3l0.1,1.3l0.2,1.2l0.3,1.4l1.4,3.7l1.2,2.3c-11.5,2.4-31.8,20.5-31.9,20.4
		l-0.1-0.4l-0.4-3.7c-4-22.4-18.1-27.4-27.1-45.7c-2-23.8,21.2-25.3,34.8-19.7c14.3,5.9,23,21.8,0.8,24.7l-0.7,0.1H85l-0.3-0.1
		l-0.1-0.1L84.4,35l-0.1-0.2l0.1-0.7l-0.2-0.6L84,32.7l-0.3-0.6l-0.3-0.6L83.2,31l-0.4-0.6l-0.4-0.4l-0.8-0.4l-0.8-0.3l-0.9-0.1
		l-0.9-0.1c-13.8-0.1-12.2,11.9-0.6,13h1.2h1.2l1.3-0.1l1.2-0.2l1.2-0.2l2.4-0.6l2.4-0.9c45.8-18.9-40.6-67-48-8.1
		C1.2,17.8-24.7,86.7,37.5,81.6"/>
	<path class="st1" d="M127.8,60.5c-14.9-8-15-23.3,6.2-15.3l1.7,0.8c3,1.6,5.4,3.2,7.3,5.8c2.5,3.5,3.7,8.6-1.2,11
		C137.1,65.3,132,62.3,127.8,60.5"/>
	<path class="st0" d="M224.7,141.8V139c0.1,0.1,0.4,0.1,0.5,0.1c1.9,0,3.5-0.6,4.7-1.7l1.4,2.4c-0.5,0.5-1.3,0.9-2.3,1.3
		C227.6,141.5,226.2,141.8,224.7,141.8 M224.7,132.7v-2.4l5,0.1c0-1.3-0.4-2.4-1.2-3.3c-0.9-0.9-2.1-1.4-3.7-1.4h-0.1v-2.7
		c2.6,0,4.7,0.8,6.1,2.2c1.4,1.4,2.2,3.3,2.2,5.6c0,0.7-0.1,1.4-0.3,2L224.7,132.7z M224.7,92.2v-2.5c0.9-0.7,2.1-1.1,3.3-1.1
		c2.7,0,4.5,0.8,5.5,2.4c0.4-0.7,1.1-1.3,2.1-1.7c1-0.4,2-0.7,3-0.7c1.9,0.1,3.4,0.6,4.4,1.7c1,1.2,1.5,2.7,1.5,4.8l-0.1,12.2
		l-3.2-0.1l0.1-11.5c0-2.9-1.2-4.4-3.7-4.4c-0.8,0-1.5,0.3-2.2,0.7c-0.6,0.5-1.2,1-1.4,1.7l-0.1,13.5h-3.2l0.1-13
		c0-0.9-0.3-1.6-1-2.1c-0.6-0.6-1.5-0.8-2.7-0.8c-0.6-0.1-1.4,0.2-2.1,0.7C224.8,92.1,224.7,92.1,224.7,92.2 M243,136.3l0.1-20.5
		h3.3l-0.1,20.1c0,0.9,0.3,1.7,0.9,2.2c0.5,0.6,1.2,0.9,2.2,0.9v2.9C245.1,141.9,243,140,243,136.3 M257,82.1c0.6,0,1,0.2,1.4,0.6
		c0.4,0.4,0.6,0.9,0.6,1.4c0,0.6-0.2,1.1-0.6,1.4c-0.4,0.4-0.9,0.6-1.4,0.6c-0.6,0-1-0.2-1.4-0.6c-0.4-0.4-0.6-0.9-0.6-1.4
		c0-0.6,0.2-1,0.6-1.4C256,82.3,256.4,82.1,257,82.1 M255.1,107.3l0.1-15.6h-2.5V89l5.8,0.1l-0.1,18.3L255.1,107.3z M281.8,90.7
		l-1.6,2.3c-0.4-0.4-0.9-0.6-1.7-0.9c-0.9-0.4-1.7-0.5-2.5-0.5c-1.7,0-3.2,0.6-4.2,1.9c-1.1,1.2-1.6,2.9-1.6,5
		c0,2.2,0.5,3.7,1.6,4.9c1,1.2,2.5,1.7,4.4,1.7c1.4,0,2.9-0.6,4.4-1.7l1.3,2.7c-1.8,1.1-4,1.7-6.5,1.7c-2.5-0.1-4.6-0.9-6.2-2.6
		c-1.7-1.7-2.4-4-2.4-6.8c0-3,0.9-5.3,2.5-7.1c1.7-1.7,4-2.6,7-2.6c0.9,0,1.9,0.2,3.1,0.6C280.5,89.8,281.3,90.3,281.8,90.7
		 M224.7,89.7c-0.5,0.4-0.9,0.8-1.4,1.4l-1.1-2.2h-2.1l-0.1,18.3h3.2l0.1-13.5c0.3-0.6,0.7-1,1.4-1.5V89.7z M224.7,122.9
		c-2.2,0-4.2,0.8-5.8,2.4c-1.8,1.8-2.7,4.2-2.8,7.2c0,2.9,0.9,5.2,2.7,6.9c1.6,1.5,3.5,2.3,5.8,2.4h0.1V139
		c-1.4-0.1-2.5-0.6-3.5-1.5c-1.2-1.2-1.7-2.7-1.7-4.8h5.2v-2.4h-5.1c0.1-1.3,0.6-2.4,1.7-3.3c0.9-0.9,2.1-1.4,3.5-1.4V122.9z
		 M203.8,141.7v-2.8c0.2,0.1,0.5,0.1,0.7,0.1c0.9,0,1.7-0.2,2.6-0.6l0.4,2.8C206.4,141.5,205.2,141.6,203.8,141.7 M203.8,125.7v-2.6
		l2.5,0.1v2.5H203.8z M203.8,107.4v-2.7h0.6c1.9,0.1,3.4-0.5,4.7-1.6l1.4,2.4c-0.6,0.5-1.3,0.9-2.4,1.3
		C206.9,107.2,205.4,107.4,203.8,107.4 M203.8,98.3v-2.4l5.1,0.1c0-1.4-0.4-2.4-1.2-3.3c-0.9-0.9-2.2-1.4-3.7-1.4h-0.2v-2.7h0.1
		c2.6,0,4.6,0.8,6.1,2.2c1.4,1.4,2.2,3.3,2.1,5.6c0,0.7-0.1,1.4-0.2,2L203.8,98.3z M203.8,88.5c-2.2,0-4.1,0.8-5.8,2.4
		c-1.9,1.8-2.8,4.2-2.8,7.2c0,2.9,0.9,5.2,2.7,6.9c1.6,1.6,3.5,2.4,5.8,2.4h0.1v-2.7c-1.4-0.1-2.5-0.6-3.4-1.5
		c-1.2-1.2-1.8-2.8-1.7-4.9h5.1v-2.4h-5c0.1-1.3,0.6-2.4,1.6-3.3c0.9-0.9,2.1-1.4,3.5-1.4V88.5z M203.8,123.1h-2.4v-5l-3.2,1.2v3.8
		H196v2.5h2.1V136c0,1.6,0.5,3,1.4,4c1,1.1,2.2,1.7,3.7,1.7h0.6v-2.8c-0.8-0.1-1.4-0.4-1.7-0.9c-0.6-0.7-0.8-1.8-0.8-3.2l0.1-9.1
		h2.4V123.1z M179.5,141.5v-2.9c0.4,0.1,0.8,0.1,1.1,0.1c2,0.1,3-0.8,3-2.4c0-1.2-0.9-2.2-2.9-3.1c-0.4-0.2-0.9-0.4-1.2-0.6v-3.5
		c0.3,0.3,0.7,0.6,1.2,0.8l2.3,1c1.4,0.7,2.4,1.4,3.1,2.3c0.6,0.8,1,1.9,0.9,3c0,1.7-0.6,3-1.7,3.8c-1.2,0.9-2.7,1.4-4.8,1.4H179.5z
		 M179.5,125.9v-3.1c0.5-0.1,1.1-0.1,1.7-0.1c1.3,0,3,0.4,5,1.3l-0.9,3c-1.3-1.1-2.6-1.6-3.9-1.6C180.7,125.4,180,125.5,179.5,125.9
		 M179.5,107.3v-2.8c0.4,0.1,0.9,0.1,1.4,0.1s1.2-0.1,1.9-0.5c0.7-0.3,1.2-0.6,1.4-1V92.9c-0.8-1.2-1.9-1.9-3.3-1.9
		c-0.4,0-0.9,0.1-1.3,0.1v-2.9h0.4c1.9,0,3.3,0.4,4.3,1.4v-8.5h3.2l-0.1,25.8H184v-1.4C183,106.7,181.5,107.3,179.5,107.3
		 M179.5,88.3c-2.1,0.1-4,1.1-5.5,2.9c-1.7,1.9-2.4,4.3-2.4,7.1c-0.1,2.7,0.6,4.9,2.1,6.6c1.4,1.7,3.2,2.4,5.5,2.4h0.4v-2.8
		c-3.1-0.4-4.6-2.7-4.6-6.5c0-2,0.6-3.7,1.7-5c0.8-0.9,1.8-1.6,3-1.8V88.3z M179.5,122.8c-1,0.1-1.9,0.5-2.6,1.1
		c-1.1,0.9-1.7,2-1.7,3.5c0,0.6,0.1,1.1,0.3,1.7c0.2,0.5,0.4,0.9,0.9,1.4c0.4,0.4,0.8,0.8,1.3,1.2c0.4,0.3,1,0.6,1.8,1v-3.5
		c-0.6-0.5-0.9-1.2-0.9-1.9c0.1-0.6,0.3-1.1,0.9-1.4V122.8z M179.5,138.6c-0.9-0.2-2-0.8-3.2-1.7l-1.2,3.1c1.4,0.8,2.9,1.3,4.5,1.4
		V138.6z M158.2,141.5v-2.7c1.4,0,2.7-0.6,3.5-1.8c0.9-1.2,1.3-2.9,1.3-5c0-4.5-1.6-6.8-4.8-6.8v-2.7c2.7,0,4.7,0.9,6.1,2.5
		c1.4,1.7,2.2,4,2.2,7c-0.1,3-0.8,5.2-2.3,6.9C162.7,140.6,160.7,141.5,158.2,141.5 M158.2,106.2v-2.6c0.5-0.4,1-0.8,1.4-1.4
		l0.1-4.4c-0.6-0.1-1.2-0.3-1.5-0.3v-2.4c0.4,0.1,0.9,0.2,1.5,0.4c0-1.9-0.5-3.2-1.5-3.8v-3.3c1.2,0.3,2.2,0.9,3,1.6
		c1.2,1.2,1.8,3.1,1.8,5.8l-0.1,6.6c0,1.6,0.5,2.7,1.4,3.2v1.6c-1.3,0-2.3-0.2-3-0.6c-0.6-0.4-1.2-1-1.4-1.9
		C159.5,105.4,158.8,105.9,158.2,106.2 M136.3,140.9l0.1-12h-10.9l-0.1,12l-3.4-0.1l0.1-24.9h3.4v10l10.8,0.1l0.1-10h3.4l-0.1,25
		L136.3,140.9z M158.2,88.5c-0.9-0.1-1.8-0.2-2.8-0.3c-1,0-2,0.2-3.1,0.6c-1.1,0.3-1.9,0.8-2.6,1.2l1.4,2.7c1.1-1.1,2.7-1.6,4.7-1.6
		c1,0,1.8,0.2,2.4,0.6V88.5z M158.2,95.2c-0.3,0-0.6-0.1-0.8-0.1c-2.5,0-4.6,0.6-6.3,1.9c-1.6,1.2-2.4,2.8-2.4,4.7
		c0,1.5,0.5,2.8,1.6,3.9c1,1,2.3,1.6,3.7,1.6c1.7,0,3.1-0.3,4.2-0.9v-2.6c-0.9,0.6-1.9,0.9-2.9,0.9c-2.3,0-3.4-0.9-3.4-2.9
		c0-1.1,0.6-2.1,1.6-3c1-0.9,2.4-1.2,4-1.2c0.1,0,0.4,0,0.6,0.1V95.2z M158.2,122.5c-2.4,0-4.5,0.9-6,2.6c-1.5,1.7-2.3,4-2.3,6.8
		c0,2.9,0.6,5.1,2.2,6.8c1.4,1.7,3.5,2.7,6,2.7h0.1v-2.7h-0.1c-3.2,0-4.8-2.3-4.8-6.8c0-2.1,0.5-3.8,1.4-5c0.9-1.2,2-1.8,3.5-1.8
		V122.5z M110.9,101.3v-2.5h3.7l-3.5-11l-0.2,0.6v-7.1h0.9l9.3,25.4l-3.8-0.1l-1.7-5.3H110.9z M141.7,90l-1.7,2.2
		c-0.3-0.3-0.9-0.6-1.7-0.9c-0.8-0.3-1.7-0.4-2.4-0.4c-1.7,0-3.2,0.6-4.2,1.8c-1,1.2-1.5,3-1.5,5.1c-0.1,2.1,0.5,3.7,1.4,4.9
		c1.1,1.2,2.5,1.7,4.4,1.7c1.5,0.1,3-0.5,4.5-1.7l1.2,2.7c-1.7,1.2-3.9,1.7-6.5,1.7c-2.4,0-4.5-0.8-6-2.5c-1.7-1.7-2.4-4-2.4-6.8
		c0-3,0.9-5.3,2.6-7.1c1.7-1.7,4-2.6,6.9-2.6c0.9,0,1.9,0.2,3,0.6C140.3,89.1,141.2,89.5,141.7,90 M110.9,81.3L110.9,81.3
		l-10.4,25.3h3.9l1.8-5.3l4.7,0.1v-2.5l-3.7-0.1l3.7-10.4V81.3z"/>
</g>
</svg>
