<?xml version="1.0" encoding="UTF-8"?>
<!-- Generator: Adobe Illustrator 19.0.0, SVG Export Plug-In . SVG Version: 6.00 Build 0)  -->
<svg version="1.1" id="Layer_1" xmlns="http://www.w3.org/2000/svg" xmlns:xlink="http://www.w3.org/1999/xlink" x="0px" y="0px" viewBox="0 0 283.5 74.6" style="enable-background:new 0 0 283.5 74.6;" xml:space="preserve">
<style type="text/css">
	.st0{clip-path:url(#SVGID_2_);fill:#1E1D2A;}
	.st1{clip-path:url(#SVGID_2_);fill:#E1048C;}
</style>
<g>
	<defs>
		<rect id="SVGID_1_" y="0" width="283.5" height="74.6"/>
	</defs>
	<clipPath id="SVGID_2_">
		<use xlink:href="#SVGID_1_" style="overflow:visible;"/>
	</clipPath>
	<path class="st0" d="M13.4,43L6.1,57.6H0l24-46.4h6.7l6.4,46.4h-5.9L29.5,43H13.4z M29,38.4L27.2,25c-0.3-2.4-0.6-5.8-0.8-8.5h-0.1   c-1.2,2.8-2.4,5.6-3.8,8.5l-7,13.5H29z"/>
	<path class="st0" d="M43.4,57.6l4.1-21.5c0.8-4.3,1.4-8.7,1.7-11.8h5c-0.3,2.3-0.6,4.7-0.9,7.2h0.2c2.1-4.5,5.7-8,10.2-8   c0.5,0,1.2,0.1,1.6,0.1l-1.1,5.6c-0.3-0.1-0.9-0.1-1.5-0.1c-5,0-9.4,6-10.8,13.8l-2.8,14.7H43.4z"/>
	<path class="st0" d="M74.1,24.3l2.9,19c0.5,3.8,0.9,6.3,1,8.2h0.2c0.7-1.8,1.6-4,3.5-7.8l10.2-19.4h6.3L79.7,57.6H74l-5.8-33.3   H74.1z"/>
	<path class="st0" d="M130.5,24.3L126,47.9c-0.7,3.7-1.2,7-1.5,9.7h-5.2l0.9-6.3h-0.1c-3,4.3-7.4,7-11.8,7c-4.3,0-8.7-2.1-8.7-9.6   c0-1.6,0.2-3.4,0.6-5.6l3.6-18.9h5.7L106,42.9c-0.4,1.9-0.6,3.4-0.6,4.9c0,3.4,1.4,5.8,5.4,5.8c4.1,0,9.4-4.8,10.8-12.2l3.2-17.1   H130.5z"/>
	<path class="st0" d="M149.1,15.3l-1.7,9h8l-0.9,4.5h-8L143.4,45c-0.3,1.9-0.6,3.6-0.6,5.4c0,2,1,3.2,3.2,3.2c1,0,1.9-0.1,2.7-0.2   l-0.3,4.5c-1,0.4-2.8,0.6-4.4,0.6c-5.1,0-7-3.1-7-6.5c0-1.9,0.2-3.9,0.7-6.3l3.3-16.9h-4.8l0.9-4.5h4.7l1.4-7.5L149.1,15.3z"/>
	<path class="st1" d="M185.2,30.3l-2.7,13.6c-0.3,1.6-0.6,3.3-0.6,4.8c0,1.8,0.8,3,3,3c1,0,1.9,0,2.8-0.1l-0.8,6.3   c-1.2,0.4-3.3,0.7-5.2,0.7c-5.5,0-8-3-8-6.9c0-1.9,0.2-3.8,0.8-6.3l2.9-14.9h-4.5l1.2-6.2h4.5l1.4-7.2l8.2-2l-1.7,9.2h4.7V0h-33.9   v47.4l4.4-23.3h8.1l-6.4,33.5h-6.1v17h33.9V30.3H185.2z M167,19.3c-2.5,0-4.2-1.8-4.1-4.3c0-2.9,2.2-4.9,4.8-4.9   c2.5,0,4.3,1.8,4.3,4.3C171.9,17.4,169.7,19.3,167,19.3"/>
	<path class="st0" d="M216.5,57.6c0-2,0.3-5.2,0.8-8.6h-0.1c-3.7,6.9-8.2,9.4-12.9,9.4c-5.9,0-9.6-4.7-9.6-11   c0-11.6,8.5-23.8,23.1-23.8c3.2,0,6.7,0.6,9,1.3l-3.4,17.4c-1.1,5.8-1.6,11.7-1.4,15.4H216.5z M220.3,28.6c-0.8-0.2-2.1-0.5-4-0.5   c-8.6,0-15.6,9-15.7,18.2c0,3.7,1.3,7.4,5.7,7.4c4.8,0,10.4-6.2,12-15.1L220.3,28.6z"/>
	<path class="st0" d="M230.4,57.6l4.1-21.5c0.8-4.3,1.4-8.7,1.7-11.8h5c-0.3,2.3-0.6,4.7-0.9,7.2h0.2c2.1-4.5,5.7-8,10.2-8   c0.5,0,1.2,0.1,1.6,0.1l-1.1,5.6c-0.3-0.1-0.9-0.1-1.5-0.1c-5,0-9.4,6-10.8,13.8l-2.8,14.7H230.4z"/>
	<path class="st0" d="M252.3,57.6l9.2-48.9h5.7l-5.8,30.6h0.1c1-1.2,2.3-2.4,3.1-3.4l11.8-11.7h7L268.9,38l10,19.6h-6.3l-8-16.5   l-4.2,3.8L258,57.6H252.3z"/>
</g>
</svg>