<?xml version="1.0" encoding="utf-8"?>
<!-- Generator: Adobe Illustrator 19.0.0, SVG Export Plug-In . SVG Version: 6.00 Build 0)  -->
<svg version="1.1" id="Layer_1" xmlns="http://www.w3.org/2000/svg" xmlns:xlink="http://www.w3.org/1999/xlink" x="0px" y="0px"
	 viewBox="0 0 189.7 300.9" style="enable-background:new 0 0 189.7 300.9;" xml:space="preserve">
<style type="text/css">
	.st0{fill-rule:evenodd;clip-rule:evenodd;fill:#E60019;}
	.st1{fill-rule:evenodd;clip-rule:evenodd;fill:#FFFFFF;}
</style>
<g>
	<path class="st0" d="M76.5,300.9c0,0-3.5-5.9-8.3-16C18.2,177.3,56.1,77.6,107.9,6c2.6-3.6,3.3-5.9,3.3-5.9L189.7,0
		c-1.2,1.9-2,4.2-3.4,6c-53.5,73.2-85.8,178.3-33.9,280.4c2.4,4.8,4.2,8.7,5.7,11.4c-1.5-1-4.3-3-8.3-6.5
		c-20.5-17.5-36.5-35.2-52.3-56.4c-2.8-3.8-4.5-6.1-4.5-6.1s-1.1,2.2-2.6,5.9c-8.3,20.6-12,36.6-13.6,59
		C76.6,298.2,76.5,300.9,76.5,300.9L76.5,300.9z"/>
	<path class="st0" d="M14.7,118.7l153.6,0.1c8.1,0,14.7,6.6,14.7,14.7v41.8c0,8.1-6.6,14.7-14.7,14.7l-153.6-0.1
		c-8.1,0-14.7-6.6-14.7-14.7L0,133.4C0,125.3,6.6,118.7,14.7,118.7L14.7,118.7z"/>
	<path class="st1" d="M154.4,172.7V170c0,0,0-0.1,0-0.1c0-0.1,0.1-0.2,0.1-0.4c0.4-1.3,1.2-3.6,2.4-6.7c1.4-4,2.7-7.2,3.8-9.7
		c1-2.4,2-4.7,2.9-6.5c0.3-0.5,1.1-1.2,2.2-1.9c1.2-0.8,1.9-1.2,2.2-1.2c0.1,0,0.2,0.1,0.3,0.2c0.2,0.2,0.3,0.5,0.6,0.8
		c0.4,0.4,0.6,0.8,0.6,1c0,0.4-0.9,2.4-2.7,5.8c-1.8,3.6-3.4,6.6-4.5,9.1c0.6-0.4,1.7-1.2,2.8-2.2c2.2-1.7,3.7-2.6,4.8-2.7
		c0.3-0.2,0.5-0.3,0.7-0.3c0.3-0.1,0.5-0.2,0.6-0.2c0.5,0,1.1,0.3,1.5,0.7c0.4,0.6,0.7,1.4,0.7,2.2c0,1.5-0.9,2.9-2.6,4
		c-0.3,0.2-0.6,0.3-0.6,0.5c-0.4,0.2-0.8,0.7-1.4,1.5c-0.5,0.7-1,1.2-1.5,1.2c-0.3,0-0.6-0.2-0.8-0.3c-0.2-0.2-0.3-0.5-0.3-0.8
		c0-0.4,0.4-0.9,1.2-1.7c0.8-0.7,1.2-1.4,1.2-1.9c0-0.3-0.2-0.6-0.3-0.7c-0.2-0.3-0.5-0.3-0.8-0.3c-0.5,0-1,0.2-1.7,0.5
		c-0.7,0.4-1.5,1-2.4,1.7c0.6,0.1,0.9,0.2,1.1,0.3c0.3,0.2,0.4,0.5,0.4,0.7c0,0.1,0.1,0.4,0.1,0.6c0,1.1,0.3,1.9,0.5,2.6
		c0.6,0.9,1.2,1.7,1.8,2.2c0.8,0.6,1.7,0.9,2.5,0.9c0.8,0,1.4-0.3,1.8-0.6c0.4-0.4,0.7-0.7,1-0.7c0.2,0,0.4,0.2,0.4,0.3
		c0.3,0.2,0.3,0.5,0.3,0.7c0,0.3-0.2,0.7-0.4,1c-0.2,0.4-0.6,0.8-1,0.9c-0.2,0.1-0.7,0.3-1.2,0.5c-2.4,1.1-3.9,1.8-4.5,1.8
		c-1.6,0-2.9-0.7-3.8-2.3c-0.9-1.5-1.6-3.7-1.7-6.6c-0.9,2.4-1.6,4.1-2.1,5.3c-0.5,1.2-0.9,1.9-1.1,2.2c-0.2,0.1-0.7,0.4-1.5,0.7
		c-0.9,0.5-1.4,0.8-1.5,0.8C154.7,172.8,154.5,172.8,154.4,172.7L154.4,172.7L154.4,172.7z M154.4,167.5L154.4,167.5
		c0.3-0.5,0.4-0.9,0.4-1.3c0-0.2-0.1-0.4-0.4-0.7V167.5L154.4,167.5z M154.4,160.3L154.4,160.3c0.1-0.1,0.1-0.2,0.2-0.4
		c0.3-0.4,0.4-0.9,0.4-1.4c0-0.2-0.1-0.6-0.5-1l0,0V160.3L154.4,160.3z M154.4,157.5v2.8c-0.3,0.3-0.5,0.4-0.7,0.4
		c-0.1,0-0.3-0.1-0.5-0.2c-0.3-0.1-0.5-0.2-0.7-0.2c-0.8,0-1.5,0.4-2.2,0.8c-0.7,0.6-1.4,1.4-2,2.4c-0.6,1.1-1.2,2-1.5,2.9
		c-0.4,1-0.6,1.8-0.6,2.3c0,0.2,0.1,0.4,0.2,0.6c0.2,0.1,0.3,0.2,0.6,0.2c0.2,0,0.9-0.2,1.9-0.6c1-0.3,2-0.9,3-1.5
		c0.8-0.8,1.4-1.3,1.7-1.6c0.3-0.2,0.6-0.4,0.7-0.4h0.2v1.9l-0.4,0.6c-0.6,0.8-1.4,1.5-2.3,2.2c-0.9,0.7-2.1,1.4-3.1,1.8
		c-1.2,0.4-2,0.7-2.5,0.7c-0.2,0-0.4-0.1-0.7-0.1c-0.3,0-0.7-0.1-0.9-0.1h-0.3c-0.2,0-0.3,0.1-0.3,0.1c-1,0-2-0.3-2.7-0.8
		c-0.2-0.2-0.4-0.5-0.6-0.8v-3.4c0.2-0.6,0.4-1.2,0.7-1.8c0.7-1.5,1.6-2.9,2.7-4.1c1.2-1.4,2.7-2.7,4.5-3.7c1.7-1.1,3.1-1.7,3.9-1.7
		c0.5,0,1.2,0.3,1.7,0.7C154.1,157.3,154.3,157.4,154.4,157.5L154.4,157.5z M154.4,170c-0.4,1-0.6,1.7-0.6,1.9
		c0,0.3,0.2,0.6,0.3,0.7c0.1,0.1,0.2,0.1,0.3,0.2V170L154.4,170z M140.5,159c0.2-0.7,0.3-1.2,0.3-1.3c0-0.2-0.1-0.4-0.3-0.6V159
		L140.5,159z M140.5,157v1.9c0,0.1-0.1,0.1-0.1,0.1c0,0.2-0.1,0.3-0.1,0.6c-0.3,1.1-0.6,2.2-0.9,3.1c-0.4,1.9-0.7,3.6-1,4.9
		c-0.2,1.4-0.4,2.3-0.4,2.5c0,0.3,0.1,0.5,0.2,0.8c0.1,0.3,0.2,0.5,0.2,0.6c0,0.2-0.2,0.5-0.4,0.7c-0.3,0.2-0.7,0.5-1.1,0.5
		c0,0-0.4-0.1-0.7-0.1c-0.1-0.2-0.4-0.2-0.6-0.2h-0.4c-0.2,0-0.3,0.2-0.4,0.2c-0.4,0-0.9-0.4-1.1-0.9c-0.3-0.6-0.4-1.5-0.4-2.9v-1.1
		c0-0.3,0.1-0.7,0.2-1.2c-0.5,0.6-1,1.1-1.5,1.5l0,0v-2.6l0,0c0.6-0.7,1.3-1.4,1.8-2.2c0.8-1.1,1.6-2.2,2.2-3.1
		c0.4-0.9,0.8-1.6,0.8-1.9c-0.2-0.3-0.4-0.3-0.4-0.3c-0.5,0-1.4,0.5-2.5,1.4c-0.6,0.5-1.2,1-1.8,1.6l0,0v-4l0,0
		c0.6-0.3,1.3-0.6,1.8-0.8c1.2-0.4,2.2-0.6,2.8-0.6c1.1,0,2,0.2,2.9,0.6C140,156.5,140.3,156.7,140.5,157L140.5,157L140.5,157z
		 M140.5,167.9c0,0.1-0.1,0.1-0.1,0.1c-0.2,0.8-0.3,1.4-0.3,1.9c0,0.5,0.2,0.9,0.3,1.3l0.1,0.1V167.9L140.5,167.9z M110,166.2
		c1.3-2.1,2.6-3.9,3.7-5.4c1.2-1.5,2.4-2.6,3.3-3.4c0.2-0.3,0.6-0.6,1-0.7c0.5-0.3,1-0.4,1.4-0.4c0.6,0,1,0.2,1.4,0.6
		c0.4,0.5,0.5,1.3,0.5,2c0,1.2-0.3,2.9-0.8,4.8c-0.6,1.9-0.8,3.4-0.8,4c0,0.5,0.1,0.9,0.3,1.2c0.3,0.3,0.4,0.5,0.4,0.6
		c0,0.4-0.6,0.9-1.7,1.7c-1.1,0.7-2,1.1-2.7,1.1c-0.5,0-0.9-0.3-1.2-0.9c-0.2-0.5-0.4-1.4-0.4-2.4c0-0.2,0.1-0.6,0.2-1.1
		c0.2-0.6,0.5-1.6,0.9-2.8c0.3-1,0.6-1.9,0.8-2.6c0.3-0.8,0.4-1.3,0.4-1.4l-0.2-0.2c-0.1,0-0.5,0.4-1.2,1.1
		c-0.6,0.7-1.4,1.8-2.4,3.1c-1.1,1.4-2,2.7-2.9,4c-0.8,1.3-1.4,2-1.4,2s-0.5,0.2-1.2,0.5c-0.8,0.4-1.5,0.5-1.5,0.5
		c-0.1,0-0.4-0.2-0.7-0.6c-0.3-0.5-0.5-0.8-0.5-1c0-0.1,0.2-0.8,0.5-2c0.3-1.4,0.7-2.8,1.2-4.4c0.6-1.7,1-3.3,1.5-4.6
		c0.6-1.2,0.8-1.9,0.9-2.2c0.2-0.1,0.5-0.4,1.2-0.7c0.7-0.4,1.3-0.5,1.5-0.5c0.4,0,1,0.1,1.4,0.4c0.5,0.4,0.7,0.8,0.7,1.2l-1.4,2.5
		C111.4,162.1,110.6,164.1,110,166.2L110,166.2z M132.1,157v4c-0.7,0.6-1.3,1.3-1.9,2c-0.9,0.9-1.6,1.9-2,2.8
		c-0.5,0.8-0.8,1.6-0.8,2.1c0,0.3,0.1,0.5,0.1,0.5s0.2,0.1,0.3,0.1c0.7,0,1.5-0.4,2.6-1.4c0.6-0.4,1.2-0.9,1.7-1.5v2.6
		c-0.4,0.4-0.9,0.8-1.3,1c-0.9,0.6-1.8,1.2-2.7,1.5c-1,0.3-2,0.6-2.9,0.9c-1,0.2-1.5,0.3-1.8,0.3c-0.6,0-1.1-0.3-1.4-0.8
		c-0.3-0.6-0.5-1.3-0.5-2c0-0.4,0.2-1,0.5-1.7c0.3-0.7,0.8-1.7,1.5-2.7c0.8-1.3,1.8-2.5,3-3.6c1.1-1.1,2.6-2.2,4.2-3.1
		C131.1,157.7,131.6,157.4,132.1,157L132.1,157z M69.2,177.6c1.6-0.3,3.7-0.7,6-1.2c4.7-1,9.7-2.4,14.7-4c0.1,0,0.4-0.1,0.6-0.3
		c2.1-0.6,4.1-1.7,5.8-2.9c1.1-0.9,2.7-2,4.2-3c0.5-0.3,0.9-0.5,1.1-0.6c0.9-0.6,1.6-1.4,2.1-2.2c0.5-0.7,0.7-1.7,0.7-2.6
		c0-1.9-1.2-3.4-3.4-4.3c-2.2-0.9-5.9-1.4-11.1-1.4c-1.2,0-2.4,0.1-3.9,0.2c-1.4,0-2.3,0.1-2.5,0.1c-1.7,0-3-0.2-3.7-0.5
		c-0.7-0.2-1.2-0.7-1.2-1.4c0-0.7,0.5-1.4,1.3-1.9c0.8-0.7,2.1-1.3,3.8-1.9c1-0.4,2.3-0.8,3.8-1.3c1.6-0.3,3.4-0.8,5.5-1.3
		c1.2-0.2,2.3-0.5,3.3-0.6c0.9-0.2,1.5-0.3,1.9-0.3c0.4,0,0.6,0.1,0.8,0.3c0.1,0.1,0.2,0.4,0.2,0.5c0,0-0.1,0.2-0.1,0.3v0.3
		c0,0.3,0.2,0.6,0.3,0.8c0.2,0.2,0.5,0.4,0.7,0.4c0.4,0,0.8-0.4,1.4-1.2c0.2-0.3,0.5-0.6,0.5-0.7c0.3-0.3,0.7-0.8,1.2-1.4
		c1-1,1.6-1.8,1.6-2.4c0-0.7-0.3-1.2-0.9-1.6c-0.5-0.3-1.3-0.5-2.4-0.5c-1.1,0-2.4,0.2-3.8,0.4c-1.4,0.3-3,0.6-4.6,1.2
		c-2.7,0.8-5.4,1.8-7.8,2.9c-2.3,1.1-4.4,2.3-6.1,3.6c-1.4,1-2.6,2.3-3.5,3.3c-0.8,1.2-1.2,2.3-1.2,3.3c0,0.5,0.1,0.9,0.4,1.3
		c0.2,0.3,0.5,0.5,1,0.5c0.1,0,0.4,0.1,0.7,0.1c0.8,0,1.4,0.2,1.7,0.5c0.2,0.3,0.6,0.5,0.9,1c0.3,0.4,0.6,0.7,0.8,0.7
		c0.5,0.4,1.3,0.7,2.3,0.9c1,0.1,2.3,0.2,3.7,0.2c0.3,0,1.1-0.1,2.2-0.1c1.1,0,2-0.1,2.8-0.1c2.6,0,4.6,0.3,6,0.8
		c1.2,0.4,1.9,1.1,1.9,2.1c0,1.4-2.6,3-7.6,4.6c-5,1.6-11.9,3-20.6,4.1c0.5-0.4,1-0.9,1.7-1.4c1-1,1.6-1.7,1.6-2
		c0-0.1-0.2-0.3-0.2-0.4c-0.1-0.1-0.4-0.1-0.6-0.1c-0.2,0-0.8,0.4-1.8,0.9c-0.7,0.5-1.6,1.1-2.5,1.8V177.6L69.2,177.6z M69.2,157.9
		v-3.4c0.8-0.1,1.7-0.5,2.6-1.2c1.1-0.8,1.6-1.2,1.7-1.2c0.3,0,0.4,0.1,0.5,0.2c0.2,0.2,0.3,0.5,0.3,0.7c0,0.4-0.3,0.9-0.7,1.4
		c-0.4,0.6-1.1,1.2-1.8,1.8C70.9,156.9,70.1,157.5,69.2,157.9L69.2,157.9z M69.2,148v-12.4c0.4-0.2,0.9-0.4,1.5-0.6
		c0.8-0.3,1.5-0.6,1.9-0.8c0.1,0,0.4-0.1,0.6-0.1c0.4-0.3,0.7-0.4,0.8-0.4c0.2,0,0.4,0.1,0.5,0.3c0.1,0.2,0.3,0.4,0.3,0.7
		c0,0.5-0.8,2.6-2.3,5.8l-0.3,0.6C70.9,144,69.8,146.3,69.2,148L69.2,148z M69.2,135.6V148c-0.3,0.7-0.5,1.3-0.6,1.8
		c-0.6,1.6-0.9,2.8-0.9,3.5c0,0.4,0.2,0.8,0.3,0.9c0.2,0.2,0.6,0.4,0.9,0.4c0.2,0,0.3,0,0.4-0.1v3.4c-0.3,0.1-0.5,0.2-0.7,0.4
		c-1.2,0.5-1.9,0.8-2.3,0.8c-0.2,0-0.6-0.2-0.9-0.4c-0.3-0.3-0.7-0.6-0.8-0.6c-0.2,0-0.3-0.2-0.4-0.2c-1.1-0.5-1.7-1-1.7-1.5
		c0-0.1,0.1-0.3,0.1-0.6c0.1-0.3,0.1-0.6,0.1-0.8v-0.4c0-0.8,0.7-3,2.1-6.5l0.4-0.9c0.3-0.8,0.8-2.2,1.5-3.6c1.4-3.4,2.1-5.5,2.1-6
		v-0.8c0-0.2-0.1-0.5-0.1-0.5c0-0.1,0.1-0.2,0.1-0.4C68.6,135.9,68.8,135.7,69.2,135.6L69.2,135.6z M69.2,171.1v6.5
		c-1.6,0.2-2.9,0.4-3.8,0.4c-0.6,0-1.1-0.1-1.4-0.2c-0.3-0.2-0.5-0.5-0.5-0.8c0-0.5,0.7-1.1,1.8-1.9c1.2-0.8,1.9-1.4,2-1.7
		c0-0.1,0.1-0.2,0.1-0.4c0.3-0.6,0.6-1,1-1.4C68.7,171.4,69,171.3,69.2,171.1L69.2,171.1z M53.2,154v-2.6c0.6-0.7,1.2-1.4,1.9-2.2
		c0.7-1.2,1.5-2.2,1.9-3.1c0.6-0.9,0.9-1.5,0.9-1.9c-0.3-0.2-0.3-0.3-0.5-0.3c-0.5,0-1.4,0.5-2.5,1.4c-0.6,0.5-1.2,0.9-1.8,1.5V143
		c0.7-0.4,1.3-0.7,1.9-0.9c1.1-0.4,1.9-0.6,2.7-0.6c1,0,2,0.3,2.8,0.6c0.8,0.5,1.3,1.1,1.3,1.5c0,0.2-0.3,0.8-0.5,1.9
		c-0.3,1.2-0.6,2.3-0.8,3.2c-0.5,1.9-0.8,3.5-1,4.9c-0.3,1.4-0.5,2.2-0.5,2.5c0,0.2,0.1,0.5,0.2,0.8c0.2,0.3,0.3,0.5,0.3,0.7
		c0,0.2-0.2,0.5-0.5,0.7c-0.3,0.2-0.7,0.4-1.1,0.4c-0.1,0-0.4,0-0.6-0.1c-0.3-0.1-0.5-0.2-0.7-0.2c-0.1,0-0.3,0.1-0.4,0.1
		c-0.2,0-0.3,0.1-0.4,0.1c-0.5,0-0.8-0.3-1.2-0.9c-0.2-0.5-0.3-1.6-0.3-2.8v-1.1c0-0.4,0.1-0.8,0.2-1.3
		C54.2,153.1,53.7,153.6,53.2,154L53.2,154z M53.2,143v3.8c0,0.1,0,0.1,0,0.1c-0.6,0.7-1.3,1.4-2,2c-0.9,1.1-1.6,2-2,2.9
		c-0.5,0.7-0.7,1.5-0.7,2.1v0.4c0,0.1,0.2,0.1,0.3,0.1c0.6,0,1.5-0.5,2.7-1.4c0.5-0.5,1.1-1,1.7-1.6c0-0.1,0-0.1,0-0.1v2.6v0.1
		c-0.4,0.4-0.8,0.7-1.3,1.1c-0.8,0.7-1.8,1.2-2.7,1.5c-1,0.4-2,0.7-3,0.9c-0.9,0.2-1.5,0.4-1.6,0.4c-0.6,0-1.1-0.3-1.4-0.8L43,157
		l0,0v-3.9l0,0c0.3-0.7,0.8-1.6,1.5-2.5c0.8-1.2,1.8-2.5,2.9-3.6c1.2-1.1,2.6-2.2,4.3-3.2C52.2,143.6,52.6,143.3,53.2,143L53.2,143
		L53.2,143z M43,149.3L43,149.3c0.4-0.7,0.5-1.4,0.5-2c0-0.7-0.2-1.4-0.5-2l0,0V149.3L43,149.3z M43,145.2v4
		c-0.2,0.4-0.5,0.7-0.7,1.2c-0.9,1.2-2.2,2.2-3.7,3.1c-1.6,1.2-3.8,2-6.1,2.7c-2.4,0.7-4.8,1.1-7.1,1.1c-1.6,0-3-0.4-4.1-0.9
		c-1.1-0.6-1.6-1.5-1.6-2.4c0-0.7,1.4-4.1,4.3-10.2l0.7-1.4c0.7-1.4,1.4-2.7,1.8-3.8c0.6-1,1-1.7,1.1-1.9c0.2-0.2,0.6-0.5,1.1-0.8
		c0.5-0.3,0.8-0.6,1-0.7c0,0,0.1-0.1,0.2-0.2c0.8-0.6,1.3-0.9,1.8-0.9c0.4,0,0.7,0.2,0.8,0.3c0.1,0.3,0.3,0.5,0.3,0.9
		c0,0.4-0.3,1.4-0.7,2.6c-0.5,1.1-1.2,2.6-2.2,4.1c-0.7,1.3-1.7,2.9-2.9,4.8c-1.5,2.4-2.3,3.9-2.3,4.5c0,0.9,0.6,1.8,1.6,2.4
		c1,0.6,2.4,0.9,4,0.9c2.2,0,4.1-0.6,5.6-1.7c1.5-1,2.5-2.5,2.5-4.1c0-1.1-0.5-2-1.3-2.6c-0.8-0.6-2-0.9-3.6-0.9H32
		c-0.6,0.1-1.2,0.2-1.4,0.2c-0.5,0-0.9-0.1-1-0.2c-0.2-0.2-0.3-0.5-0.3-0.7c0-0.2,0.1-0.3,0.1-0.5c0.1-0.1,0.3-0.3,0.4-0.4
		c0.1-0.4,0.6-0.9,1.3-1.3c0.2-0.1,0.5-0.2,0.6-0.4c1.9-1.2,3.4-2.4,4.3-3.4c1-1,1.4-2,1.4-2.8c0-0.8-0.7-1.5-2.2-2
		c-1.4-0.5-3.5-0.7-5.9-0.7c-1.6,0-3.2,0.1-4.8,0.2c-1.7,0.3-3.5,0.6-5.2,1c-1.3,0.3-2.4,0.6-3.4,0.9c-1,0.3-1.6,0.6-1.9,0.7
		c-0.1,0-0.3,0.2-0.5,0.5c-0.2,0.4-0.6,0.6-0.9,0.6c-0.5,0-0.9-0.2-1.2-0.4c-0.4-0.2-0.5-0.6-0.5-0.7c0-0.4,0.7-1,2.4-1.8
		c0.2-0.2,0.5-0.3,0.5-0.3c3.7-2,7.1-3.4,10-4.3c2.9-0.8,6.1-1.3,9.2-1.3c2.8,0,5.1,0.5,6.8,1.5c1.7,1,2.6,2.4,2.6,4
		c0,1.1-0.7,2.3-1.8,3.7c-1.2,1.3-3.2,2.8-6,4.7h0.4h1c2.4,0,4.3,0.4,5.6,1.3C42.1,144.2,42.6,144.7,43,145.2L43,145.2z M43,153.1
		c-0.1,0.1-0.1,0.2-0.1,0.3c-0.3,0.7-0.5,1.3-0.5,1.7c0,0.7,0.2,1.4,0.5,1.9V153.1L43,153.1z"/>
	<path class="st1" d="M167,121.5c1,0,2,0.2,2.9,0.3c0.9,0.2,1.8,0.5,2.7,0.9c0.9,0.4,1.7,0.9,2.4,1.4c3.3,2.5,5.5,6.4,5.5,10.8v38.6
		v0.1c0,3.7-1.5,7-3.9,9.4c-2.4,2.4-5.8,3.9-9.4,3.9c-50.3,0-100.6,0-151-0.1c-0.5,0-0.9,0-1.4-0.1c-1-0.1-1.9-0.3-2.8-0.6
		c-0.9-0.3-1.8-0.7-2.6-1.2c-3.9-2.4-6.5-6.6-6.5-11.5l-0.1-38.6c0-1.3,0.2-2.6,0.6-3.9c0.6-2.2,1.8-4,3.4-5.6
		c1.6-1.5,3.5-2.7,5.6-3.4c1.3-0.4,2.5-0.5,3.9-0.5C66.4,121.5,116.7,121.5,167,121.5L167,121.5z M167,185.4c3.3,0,6.2-1.3,8.3-3.5
		c2.2-2.2,3.5-5.1,3.5-8.3v-0.1V135c0-3.9-1.9-7.4-4.8-9.6c-0.7-0.5-1.4-0.9-2.1-1.2c-0.7-0.4-1.5-0.6-2.4-0.8
		c-0.8-0.2-1.7-0.3-2.6-0.3c-50.3,0-100.6,0-150.9,0c-1.2,0-2.4,0.2-3.4,0.5c-1.9,0.6-3.6,1.6-5,3c-1.4,1.4-2.4,3-2.9,4.9
		c-0.3,1.1-0.5,2.2-0.5,3.4l0.1,38.6c0,4.4,2.3,8.1,5.8,10.2c0.7,0.5,1.5,0.8,2.3,1.1c0.8,0.3,1.7,0.4,2.5,0.5
		c0.4,0.1,0.8,0.1,1.3,0.1L167,185.4L167,185.4z"/>
</g>
</svg>
