<?xml version="1.0" encoding="utf-8"?>
<!-- Generator: Adobe Illustrator 19.0.0, SVG Export Plug-In . SVG Version: 6.00 Build 0)  -->
<svg version="1.1" id="Layer_1" xmlns="http://www.w3.org/2000/svg" xmlns:xlink="http://www.w3.org/1999/xlink" x="0px" y="0px"
	 viewBox="0 0 1280 273.7" style="enable-background:new 0 0 1280 273.7;" xml:space="preserve">
<style type="text/css">
	.st0{fill:#231F20;}
	.st1{fill:#FFF100;}
</style>
<g id="XMLID_2_">
	<g id="XMLID_8_">
		<polygon id="XMLID_26_" class="st0" points="329.4,82.9 329.4,101.6 357.1,101.6 357.1,199.6 376.3,199.6 376.3,101.6 
			398.5,101.6 398.5,82.9 		"/>
		<polygon id="XMLID_25_" class="st0" points="403.6,82.9 403.6,101.6 427.4,101.6 427.4,199.6 446.7,199.6 446.7,101.6 
			472.7,101.6 472.7,82.9 		"/>
		<rect id="XMLID_24_" x="517.3" y="83.4" class="st0" width="10.5" height="18.2"/>
		<rect id="XMLID_23_" x="502.5" y="83.4" class="st0" width="10.5" height="18.2"/>
		<polygon id="XMLID_22_" class="st0" points="532.4,82.9 532.4,180.9 498.1,180.9 498.1,82.9 478.8,82.9 478.8,199.6 551.7,199.6 
			551.7,82.9 		"/>
		<polygon id="XMLID_21_" class="st0" points="602.3,82.9 602.3,199.6 621.1,199.6 621.1,150.9 665,150.9 665,131.6 621.1,131.6 
			621.1,101.6 673.2,101.6 673.2,82.9 		"/>
		<polygon id="XMLID_20_" class="st0" points="679.4,82.9 679.4,199.6 698.5,199.6 698.5,82.9 		"/>
		<polygon id="XMLID_19_" class="st0" points="707,82.9 707,199.6 779.9,199.6 779.9,180.4 725.8,180.4 725.8,82.9 		"/>
		<polygon id="XMLID_18_" class="st0" points="868.7,82.9 839.5,162.4 807.9,82.9 785.6,82.9 785.6,199.6 806,199.6 806,134.6 
			831.9,199.6 847.5,199.6 871.2,136 871.2,199.6 891.4,199.6 891.4,82.9 		"/>
		<rect id="XMLID_17_" x="902.1" y="82.9" class="st0" width="19" height="116.8"/>
		<polygon id="XMLID_16_" class="st0" points="986.7,82.9 950.5,119.1 950.8,82.9 931.7,82.9 931.7,199.6 950.5,199.6 950.5,145.2 
			957.5,138.1 988.6,199.6 1010.5,199.6 972.5,123.7 1013.3,82.9 		"/>
		<polygon id="XMLID_15_" class="st0" points="1015,82.9 1015,199.6 1087.9,199.6 1087.9,180.4 1033.7,180.4 1033.7,82.9 		"/>
		<path id="XMLID_11_" class="st0" d="M1196.7,150.9h31l3.7,3.7v25.7h-34.7V150.9z M1196.7,101.6h34.7v28.6l-1.8,1.4h-32.9V101.6z
			 M1178,82.9v116.8h73.2V149l-6.1-6.1l5.9-4.3V82.9H1178z"/>
		<rect id="XMLID_10_" x="1261" y="82.9" class="st0" width="19" height="116.8"/>
		<polygon id="XMLID_9_" class="st0" points="1148.5,82.9 1148.5,180.9 1114.2,180.9 1114.2,82.9 1094.9,82.9 1094.9,199.6 
			1167.8,199.6 1167.8,82.9 		"/>
	</g>
	<g id="XMLID_3_">
		<g id="XMLID_6_">
			<path id="XMLID_7_" class="st1" d="M137.6,273.7c76,0,137.6-61.3,137.6-136.9C275.3,61.3,213.7,0,137.6,0S0,61.3,0,136.9
				C0,212.4,61.6,273.7,137.6,273.7"/>
		</g>
		<polygon id="XMLID_5_" class="st0" points="98.7,97 85.5,97 89.3,64.4 121.9,56 129.6,69.6 		"/>
		<path id="XMLID_4_" class="st0" d="M161,210.8l-36.6-61l39.4-40.3l30.9-0.5l3-10h18.7l10.1,3.9v-26L216.5,81h-19.7l-1.5-13.9
			l33.3-1.9v-7.7L192,56l-3.8,14.5l-7.3,0.1l-11,7.6l-27.1,4.2l-7.2-3.3l-5.2,10.3l9.9,2l-0.5,10.3l4.1,5.7l3.6,2.5l-20.2,14.5
			l-30.9-20.2l-9.4,1.4l-7,22l24.4,54.4l-31.1,76.4c4.1,2.2,8.4,4.1,12.7,5.8l37.6-66.5l15,17.6l15.2,57.8c3.6-0.4,7.2-1,10.7-1.6
			L161,210.8z"/>
	</g>
</g>
</svg>
