<?xml version="1.0" encoding="utf-8"?>
<!-- Generator: Adobe Illustrator 19.0.0, SVG Export Plug-In . SVG Version: 6.00 Build 0)  -->
<svg version="1.1" id="Layer_1" xmlns="http://www.w3.org/2000/svg" xmlns:xlink="http://www.w3.org/1999/xlink" x="0px" y="0px"
	 viewBox="0 0 345.2 114.8" style="enable-background:new 0 0 345.2 114.8;" xml:space="preserve">
<style type="text/css">
	.st0{clip-path:url(#SVGID_2_);fill:#F47C20;}
	.st1{clip-path:url(#SVGID_2_);fill-rule:evenodd;clip-rule:evenodd;fill:#FFFFFF;}
	.st2{clip-path:url(#SVGID_2_);fill:#DE1F26;}
	.st3{clip-path:url(#SVGID_2_);}
	.st4{clip-path:url(#SVGID_2_);fill:#FEBD11;}
</style>
<g>
	<defs>
		<polyline id="SVGID_1_" points="0,841.9 0,0 595.3,0 595.3,841.9 0,841.9 		"/>
	</defs>
	<clipPath id="SVGID_2_">
		<use xlink:href="#SVGID_1_"  style="overflow:visible;"/>
	</clipPath>
	<rect y="63.6" class="st0" width="345.2" height="51.2"/>
	<polygon class="st1" points="36.9,98.6 36.9,79.2 41.6,79.2 50.4,92.4 50.4,79.2 55,79.2 55,98.6 50.4,98.6 41.5,85.2 41.5,98.6 	
		"/>
	<path class="st1" d="M67.3,87.7c-0.6-0.6-1.3-0.9-2.3-0.9c-1.9,0-3,1.1-3.2,3.3h6.5C68.2,89.1,67.9,88.3,67.3,87.7z M59.5,97.2
		c-1.4-1.3-2-3.1-2-5.4c0-2.4,0.7-4.3,2-5.7c1.4-1.4,3.2-2.1,5.6-2.1c0.7,0,1.4,0.1,2.1,0.2c0.7,0.1,1.4,0.4,2.1,0.8
		c0.7,0.4,1.3,0.9,1.8,1.4c0.5,0.6,0.9,1.3,1.3,2.3c0.3,1,0.5,2,0.5,3.3c0,0.2,0,0.4-0.1,0.6h-11c0,0.6,0.1,1,0.2,1.4
		c0.1,0.4,0.2,0.8,0.5,1.2c0.2,0.4,0.6,0.7,1,0.9c0.5,0.2,1,0.3,1.7,0.3c0.8,0,1.4-0.2,2-0.5c0.6-0.3,1-0.8,1.3-1.3h4.2
		c-0.5,1.4-1.4,2.5-2.8,3.4c-1.4,0.8-3,1.3-4.8,1.3C62.7,99.2,60.8,98.5,59.5,97.2z"/>
	<path class="st1" d="M76.2,95.8V87h-2.1v-2.5h2.1v-3.8h4.3v3.8h2.4V87h-2.4v7.8c0,0.6,0.1,1.1,0.3,1.3c0.2,0.2,0.6,0.3,1.1,0.3
		c0.2,0,0.5,0,1-0.1v2.6c-0.7,0.2-1.5,0.3-2.5,0.3C77.6,99.2,76.2,98.1,76.2,95.8z"/>
	<polygon class="st1" points="88.6,98.6 84,84.2 88.4,84.2 91,94.3 93.5,84.2 97.8,84.2 100.2,94.3 102.7,84.2 107.2,84.2 
		102.5,98.6 98.1,98.6 95.6,88.5 93,98.6 	"/>
	<path class="st1" d="M119.5,94.9c0.7-0.8,1.1-1.9,1.1-3.3c0-1.4-0.4-2.5-1.1-3.4c-0.7-0.9-1.6-1.3-2.8-1.3c-1.2,0-2.1,0.4-2.8,1.3
		c-0.7,0.9-1.1,2-1.1,3.3c0,1.4,0.4,2.5,1.1,3.3c0.7,0.9,1.7,1.3,2.8,1.3C117.8,96.2,118.8,95.8,119.5,94.9z M110.7,97.2
		c-1.5-1.4-2.2-3.2-2.2-5.6c0-2.3,0.7-4.2,2.2-5.6c1.5-1.4,3.4-2.1,5.9-2.1c2.6,0,4.6,0.7,6,2c1.4,1.4,2.2,3.3,2.2,5.7
		c0,2.3-0.7,4.1-2.2,5.5c-1.5,1.4-3.4,2-5.9,2C114.2,99.2,112.2,98.5,110.7,97.2z"/>
	<path class="st1" d="M128,98.6V84.2h4.3v2.8c0.5-1,1.1-1.7,1.9-2.3c0.8-0.5,1.7-0.8,2.7-0.8c0.2,0,0.3,0,0.5,0v3.8
		c-0.5-0.1-0.9-0.1-1.3-0.1c-2.5,0-3.8,1.1-3.8,3.3v7.6H128z"/>
	<polygon class="st1" points="139.7,98.6 139.7,79.2 144,79.2 144,89.8 149.4,84.2 154.2,84.2 148.6,89.7 154.6,98.6 149.6,98.6 
		145.7,92.3 144,93.9 144,98.6 	"/>
	<polygon class="st1" points="170.4,98.6 170.4,82.5 163.7,82.5 163.7,79.2 181.5,79.2 181.5,82.5 175,82.5 175,98.6 	"/>
	<path class="st1" d="M190.4,94.9c0.7-0.8,1.1-1.9,1.1-3.3c0-1.4-0.4-2.5-1.1-3.4c-0.7-0.9-1.6-1.3-2.8-1.3c-1.2,0-2.1,0.4-2.8,1.3
		c-0.7,0.9-1.1,2-1.1,3.3c0,1.4,0.4,2.5,1.1,3.3c0.7,0.9,1.7,1.3,2.8,1.3C188.7,96.2,189.6,95.8,190.4,94.9z M181.6,97.2
		c-1.4-1.4-2.2-3.2-2.2-5.6c0-2.3,0.7-4.2,2.2-5.6c1.5-1.4,3.4-2.1,6-2.1c2.6,0,4.6,0.7,6,2c1.4,1.4,2.2,3.3,2.2,5.7
		c0,2.3-0.7,4.1-2.2,5.5c-1.5,1.4-3.4,2-5.9,2C185,99.2,183.1,98.5,181.6,97.2z"/>
	<path class="st1" d="M198.8,98.6V84.2h4.2V86c0.7-0.7,1.4-1.2,2.1-1.6c0.7-0.3,1.5-0.5,2.4-0.5c1,0,1.9,0.2,2.7,0.6
		c0.8,0.4,1.4,0.9,1.8,1.6c0.6-0.7,1.3-1.3,2.1-1.6c0.8-0.3,1.7-0.5,2.7-0.5c1.6,0,2.9,0.4,3.8,1.2c0.9,0.8,1.4,1.9,1.4,3.3v10.2
		h-4.3V89c0-0.6-0.2-1-0.6-1.4c-0.4-0.3-1-0.5-1.7-0.5c-0.9,0-1.6,0.3-2.2,0.8c-0.5,0.5-0.8,1.2-0.8,2.1v8.6h-4.3V89
		c0-0.6-0.2-1-0.6-1.4c-0.4-0.3-1-0.5-1.7-0.5c-0.9,0-1.6,0.3-2.2,0.8c-0.5,0.5-0.8,1.2-0.8,2.1v8.6H198.8z"/>
	<path class="st1" d="M236,94.9c0.7-0.8,1.1-1.9,1.1-3.3c0-1.4-0.4-2.5-1.1-3.4c-0.7-0.9-1.6-1.3-2.8-1.3c-1.2,0-2.1,0.4-2.8,1.3
		c-0.7,0.9-1.1,2-1.1,3.3c0,1.4,0.4,2.5,1.1,3.3c0.7,0.9,1.7,1.3,2.8,1.3C234.4,96.2,235.3,95.8,236,94.9z M227.2,97.2
		c-1.5-1.4-2.2-3.2-2.2-5.6c0-2.3,0.7-4.2,2.2-5.6c1.5-1.4,3.4-2.1,6-2.1c2.6,0,4.6,0.7,6,2c1.4,1.4,2.2,3.3,2.2,5.7
		c0,2.3-0.7,4.1-2.2,5.5c-1.5,1.4-3.5,2-5.9,2C230.7,99.2,228.7,98.5,227.2,97.2z"/>
	<path class="st1" d="M244.5,98.6V84.2h4.3v2.8c0.4-1,1.1-1.7,1.9-2.3c0.8-0.5,1.7-0.8,2.7-0.8c0.2,0,0.3,0,0.5,0v3.8
		c-0.5-0.1-0.9-0.1-1.3-0.1c-2.5,0-3.8,1.1-3.8,3.3v7.6H244.5z"/>
	<path class="st1" d="M256.3,98.6V84.2h4.3v2.8c0.5-1,1.1-1.7,1.9-2.3c0.8-0.5,1.7-0.8,2.7-0.8c0.2,0,0.3,0,0.5,0v3.8
		c-0.5-0.1-0.9-0.1-1.3-0.1c-2.5,0-3.8,1.1-3.8,3.3v7.6H256.3z"/>
	<path class="st1" d="M278.2,94.9c0.7-0.8,1.1-1.9,1.1-3.3c0-1.4-0.4-2.5-1.1-3.4c-0.7-0.9-1.6-1.3-2.8-1.3c-1.2,0-2.1,0.4-2.8,1.3
		c-0.7,0.9-1.1,2-1.1,3.3c0,1.4,0.4,2.5,1.1,3.3c0.7,0.9,1.7,1.3,2.8,1.3C276.6,96.2,277.5,95.8,278.2,94.9z M269.5,97.2
		c-1.5-1.4-2.2-3.2-2.2-5.6c0-2.3,0.7-4.2,2.2-5.6c1.5-1.4,3.4-2.1,6-2.1c2.6,0,4.6,0.7,6,2c1.4,1.4,2.2,3.3,2.2,5.7
		c0,2.3-0.7,4.1-2.2,5.5c-1.5,1.4-3.4,2-5.9,2C272.9,99.2,270.9,98.5,269.5,97.2z"/>
	<polygon class="st1" points="289.6,98.6 285,84.2 289.4,84.2 292,94.3 294.5,84.2 298.8,84.2 301.2,94.3 303.8,84.2 308.2,84.2 
		303.5,98.6 299.1,98.6 296.6,88.5 294,98.6 	"/>
	<rect x="0" y="25.4" class="st2" width="13.4" height="12.7"/>
	<rect x="0" y="38.1" class="st3" width="13.4" height="12.7"/>
	<rect x="0" y="50.8" class="st2" width="13.4" height="12.7"/>
	<rect x="25.5" y="25.4" class="st3" width="13.4" height="12.7"/>
	<rect x="25.5" y="38.1" class="st4" width="13.4" height="12.7"/>
	<rect x="25.5" y="50.8" class="st3" width="13.4" height="12.7"/>
	<rect x="25.5" y="12.7" class="st4" width="13.4" height="12.7"/>
	<rect x="51" y="50.8" class="st2" width="13.4" height="12.7"/>
	<rect x="76.6" y="25.4" class="st4" width="13.4" height="12.7"/>
	<rect x="76.6" y="38.1" class="st3" width="13.4" height="12.7"/>
	<rect x="76.6" y="50.8" class="st4" width="13.4" height="12.7"/>
	<rect x="102.1" y="50.8" class="st3" width="13.4" height="12.7"/>
	<rect x="102.1" class="st3" width="13.4" height="12.7"/>
	<rect x="127.6" y="25.4" class="st2" width="13.4" height="12.7"/>
	<rect x="127.6" y="38.1" class="st4" width="13.4" height="12.7"/>
	<rect x="127.6" y="50.8" class="st2" width="13.4" height="12.7"/>
	<rect x="153.1" y="50.8" class="st4" width="13.4" height="12.7"/>
	<rect x="178.6" y="25.4" class="st3" width="13.4" height="12.7"/>
	<rect x="178.6" y="38.1" class="st2" width="13.4" height="12.7"/>
	<rect x="178.6" y="50.8" class="st3" width="13.4" height="12.7"/>
	<rect x="178.6" y="12.7" class="st2" width="13.4" height="12.7"/>
	<rect x="178.6" class="st3" width="13.4" height="12.7"/>
	<rect x="204.1" y="38.1" class="st3" width="13.4" height="12.7"/>
	<rect x="204.1" y="50.8" class="st4" width="13.4" height="12.7"/>
	<rect x="229.7" y="25.4" class="st2" width="13.4" height="12.7"/>
	<rect x="229.7" y="50.8" class="st2" width="13.4" height="12.7"/>
	<rect x="255.2" y="38.1" class="st4" width="13.4" height="12.7"/>
	<rect x="255.2" y="50.8" class="st3" width="13.4" height="12.7"/>
	<rect x="280.7" y="25.4" class="st2" width="13.4" height="12.7"/>
	<rect x="280.7" y="38.1" class="st3" width="13.4" height="12.7"/>
	<rect x="280.7" y="50.8" class="st2" width="13.4" height="12.7"/>
	<rect x="306.2" y="50.8" class="st3" width="13.4" height="12.7"/>
	<rect x="331.7" y="25.4" class="st4" width="13.4" height="12.7"/>
	<rect x="331.7" y="50.8" class="st4" width="13.4" height="12.7"/>
	<rect x="102.1" y="25" class="st3" width="13.4" height="12.7"/>
</g>
</svg>
